<?xml version="1.0" encoding="UTF-8" standalone="no"?>
<svg
   xmlns:dc="http://purl.org/dc/elements/1.1/"
   xmlns:cc="http://creativecommons.org/ns#"
   xmlns:rdf="http://www.w3.org/1999/02/22-rdf-syntax-ns#"
   xmlns:svg="http://www.w3.org/2000/svg"
   xmlns="http://www.w3.org/2000/svg"
   xmlns:sodipodi="http://sodipodi.sourceforge.net/DTD/sodipodi-0.dtd"
   xmlns:inkscape="http://www.inkscape.org/namespaces/inkscape"
   version="1.1"
   id="svg2"
   xml:space="preserve"
   width="464"
   height="353.33334"
   viewBox="0 0 464 353.33334"
   sodipodi:docname="VectorEPS_ByTailorBrands (1).eps"><metadata
     id="metadata8"><rdf:RDF><cc:Work
         rdf:about=""><dc:format>image/svg+xml</dc:format><dc:type
           rdf:resource="http://purl.org/dc/dcmitype/StillImage" /></cc:Work></rdf:RDF></metadata><defs
     id="defs6"><clipPath
       clipPathUnits="userSpaceOnUse"
       id="clipPath20"><path
         d="M 0,530 V 2650 H 3480 V 530 Z"
         id="path18" /></clipPath><clipPath
       clipPathUnits="userSpaceOnUse"
       id="clipPath30"><path
         d="M 435,0 V 379 H 3045 V 0 Z"
         id="path28" /></clipPath></defs><sodipodi:namedview
     pagecolor="#ffffff"
     bordercolor="#666666"
     borderopacity="1"
     objecttolerance="10"
     gridtolerance="10"
     guidetolerance="10"
     inkscape:pageopacity="0"
     inkscape:pageshadow="2"
     inkscape:window-width="640"
     inkscape:window-height="480"
     id="namedview4" /><g
     id="g10"
     inkscape:groupmode="layer"
     inkscape:label="ink_ext_XXXXXX"
     transform="matrix(1.3333333,0,0,-1.3333333,0,353.33333)"><g
       id="g12"
       transform="scale(0.1)"><g
         id="g14"><g
           id="g16"
           clip-path="url(#clipPath20)"><path
             d="M 1503.86,2544.81 V 2256.6 c 0,-16.83 -8.41,-25.24 -25.22,-25.24 v 0 H 671.883 c -19.61,0 -36.278,-6.88 -50.004,-20.62 v 0 c -14.004,-13.75 -21.008,-30.58 -21.008,-50.49 v 0 -258.76 c 0,-19.64 7.004,-36.47 21.008,-50.49 v 0 c 13.726,-13.75 30.394,-20.62 50.004,-20.62 v 0 h 710.537 c 16.81,0 25.21,-8.42 25.21,-25.24 v 0 -288.22 c 0,-15.71 -8.4,-23.56 -25.21,-23.56 v 0 H 671.883 c -19.61,0 -36.278,-7.01 -50.004,-21.04 v 0 c -14.004,-14.58 -21.008,-31.84 -21.008,-51.75 v 0 -223 c 0,-19.91 7.004,-36.74 21.008,-50.49 v 0 c 13.726,-13.74 30.394,-20.62 50.004,-20.62 v 0 h 806.757 c 16.81,0 25.22,-8.41 25.22,-25.24 v 0 -288.634 c 0,-15.707 -8.41,-23.563 -25.22,-23.563 v 0 H 287.828 c -15.687,0 -23.531,7.856 -23.531,23.563 v 0 1732.224 c 0,15.99 7.844,23.99 23.531,23.99 v 0 H 1478.64 c 16.81,0 25.22,-8 25.22,-23.99 z M 189.086,1067.14 V 910.621 c 0,-12.902 -6.445,-19.355 -19.328,-19.355 v 0 c -12.887,0 -19.332,6.453 -19.332,19.355 v 0 156.519 c 0,9.82 6.445,14.73 19.332,14.73 v 0 c 12.883,0 19.328,-4.91 19.328,-14.73 z m -38.66,97.61 -2.942,1060.71 c 0,12.91 6.446,19.36 19.332,19.36 v 0 c 12.883,0 19.329,-6.45 19.329,-19.36 v 0 l 2.941,-1060.71 c 0,-12.9 -6.445,-19.35 -19.328,-19.35 v 0 c -12.887,0 -19.332,6.45 -19.332,19.35 z M 88.6602,2172.03 v 0 c -12.8868,0 -19.3282,6.45 -19.3282,19.35 v 0 l -1.6836,114.03 c 0,12.62 6.4454,18.93 19.3321,18.93 v 0 0 c 12.8828,0 19.3285,-6.31 19.3285,-18.93 v 0 l 1.257,-114.03 c 0,-12.9 -6.3,-19.35 -18.9058,-19.35 z m 17.6488,-70.69 v -846.13 c 0,-12.9 -6.4457,-19.35 -19.3285,-19.35 v 0 c -12.8867,0 -19.3321,6.45 -19.3321,19.35 v 0 846.13 c 0,10.66 6.4454,15.99 19.3321,15.99 v 0 c 12.8828,0 19.3285,-5.33 19.3285,-15.99 z m 0,-915.97 v -128.33 c 0,-12.9 -6.4457,-19.35 -19.3285,-19.35 v 0 c -12.8867,0 -19.3321,6.45 -19.3321,19.35 v 0 128.33 c 0,10.94 6.4454,16.41 19.3321,16.41 v 0 c 12.8828,0 19.3285,-5.47 19.3285,-16.41 z M 1478.64,2647.05 H 287.828 c -26.609,0 -50.703,-11.35 -72.269,-34.07 v 0 L 30.6719,2428.27 C 10.2227,2408.35 0,2385.07 0,2358.42 v 0 -1731.803 c 0,-26.648 9.24219,-49.371 27.7305,-68.164 v 0 C 46.5,539.66 69.1914,530.262 95.8047,530.262 v 0 H 1286.62 c 27.45,0 50.56,10.379 69.33,31.136 v 0 c 113.17,112.481 169.76,168.723 169.76,168.723 v 0 c 32.49,19.633 48.74,47.121 48.74,82.465 v 0 294.524 c 0,26.65 -9.39,49.37 -28.15,68.16 v 0 c -18.49,18.8 -41.04,28.19 -67.66,28.19 v 0 H 671.883 v 30.72 h 518.507 c 27.74,0 50.85,10.37 69.34,31.13 v 0 l 170.17,170.41 c 32.5,18.51 48.74,45.58 48.74,81.2 v 0 294.53 c 0,26.36 -9.38,48.94 -28.15,67.74 v 0 c -18.77,19.91 -41.45,29.87 -68.07,29.87 v 0 H 671.883 v 64.8 h 614.737 c 26.61,0 49.72,9.95 69.33,29.87 v 0 c 112.33,112.2 168.92,168.86 169.76,169.98 v 0 c 32.49,18.79 48.74,46.43 48.74,82.89 v 0 294.1 c 0,26.65 -9.39,49.37 -28.15,68.17 v 0 c -18.49,18.79 -41.04,28.18 -67.66,28.18 z M 330.688,845.406 H 1441.67 c 15.69,0 23.53,7.852 23.53,23.563 v 0 c 0,16.828 -7.84,25.242 -23.53,25.242 v 0 H 330.688 c -15.688,0 -23.532,-8.414 -23.532,-25.242 v 0 c 0,-15.711 7.844,-23.563 23.532,-23.563 z m 0,125.805 H 1441.67 c 15.69,0 23.53,7.852 23.53,23.559 v 0 c 0,15.71 -7.84,23.56 -23.53,23.56 v 0 H 330.688 c -15.688,0 -23.532,-7.85 -23.532,-23.56 v 0 c 0,-15.707 7.844,-23.559 23.532,-23.559 z m 0,124.119 h 211.355 c 15.687,0 23.531,7.85 23.531,23.56 v 0 c 0,15.71 -7.844,23.56 -23.531,23.56 v 0 H 330.688 c -15.688,0 -23.532,-7.85 -23.532,-23.56 v 0 c 0,-15.71 7.844,-23.56 23.532,-23.56 z m 0,124.12 h 211.355 c 15.687,0 23.531,8.42 23.531,25.25 v 0 c 0,15.71 -7.844,23.56 -23.531,23.56 v 0 H 330.688 c -15.688,0 -23.532,-7.85 -23.532,-23.56 v 0 c 0,-16.83 7.844,-25.25 23.532,-25.25 z m 0,125.8 h 211.355 c 15.687,0 23.531,7.86 23.531,23.57 v 0 c 0,15.98 -7.844,23.98 -23.531,23.98 v 0 H 330.688 c -15.688,0 -23.532,-8 -23.532,-23.98 v 0 c 0,-15.71 7.844,-23.57 23.532,-23.57 z m 0,124.13 h 211.355 c 15.687,0 23.531,7.99 23.531,23.98 v 0 c 0,16.55 -7.844,24.82 -23.531,24.82 v 0 H 330.688 c -15.688,0 -23.532,-8.27 -23.532,-24.82 v 0 c 0,-15.99 7.844,-23.98 23.532,-23.98 z m 0,125.8 h 998.792 c 16.52,0 24.79,7.86 24.79,23.56 v 0 c 0,15.99 -8.27,23.99 -24.79,23.99 v 0 H 330.688 c -15.688,0 -23.532,-8 -23.532,-23.99 v 0 c 0,-15.7 7.844,-23.56 23.532,-23.56 z m 0,124.54 h 998.792 c 16.52,0 24.79,7.86 24.79,23.57 v 0 c 0,16.82 -8.27,25.24 -24.79,25.24 v 0 H 330.688 c -15.688,0 -23.532,-8.42 -23.532,-25.24 v 0 c 0,-15.71 7.844,-23.57 23.532,-23.57 z m 0,124.12 H 534.48 c 15.969,0 23.95,8.42 23.95,25.25 v 0 c 0,15.71 -7.981,23.56 -23.95,23.56 v 0 H 330.688 c -15.688,0 -23.532,-7.85 -23.532,-23.56 v 0 c 0,-16.83 7.844,-25.25 23.532,-25.25 z m 0,125.81 H 534.48 c 15.969,0 23.95,7.85 23.95,23.56 v 0 c 0,15.71 -7.981,23.56 -23.95,23.56 v 0 H 330.688 c -15.688,0 -23.532,-7.85 -23.532,-23.56 v 0 c 0,-15.71 7.844,-23.56 23.532,-23.56 z m 0,124.12 H 534.48 c 15.969,0 23.95,7.86 23.95,23.56 v 0 c 0,16.83 -7.981,25.25 -23.95,25.25 v 0 H 330.688 c -15.688,0 -23.532,-8.42 -23.532,-25.25 v 0 c 0,-15.7 7.844,-23.56 23.532,-23.56 z m 0,125.8 H 534.48 c 15.969,0 23.95,7.86 23.95,23.57 v 0 c 0,15.7 -7.981,23.56 -23.95,23.56 v 0 H 330.688 c -15.688,0 -23.532,-7.86 -23.532,-23.56 v 0 c 0,-15.71 7.844,-23.57 23.532,-23.57 z m 0,124.13 H 1441.67 c 15.69,0 23.53,7.85 23.53,23.56 v 0 c 0,16.83 -7.84,25.24 -23.53,25.24 v 0 H 330.688 c -15.688,0 -23.532,-8.41 -23.532,-25.24 v 0 c 0,-15.71 7.844,-23.56 23.532,-23.56 z M 1441.67,2467.82 H 330.688 c -15.688,0 -23.532,8.41 -23.532,25.24 v 0 c 0,15.71 7.844,23.57 23.532,23.57 v 0 H 1441.67 c 15.69,0 23.53,-7.86 23.53,-23.57 v 0 c 0,-16.83 -7.84,-25.24 -23.53,-25.24 z m 1966.06,79.94 v -288.21 c 0,-5.05 -1.4,-9.54 -4.2,-13.47 v 0 L 2710.64,1228.29 c -15.69,-23.56 -16.67,-48.11 -2.94,-73.63 v 0 c 12.6,-25.81 33.75,-38.71 63.45,-38.71 v 0 h 613.05 c 15.69,0 23.53,-7.86 23.53,-23.56 v 0 -279.804 c 0,-16.547 -7.84,-24.824 -23.53,-24.824 v 0 H 2192.13 c -15.69,0 -23.53,8.277 -23.53,24.824 v 0 279.804 c 0,5.04 1.4,9.53 4.2,13.46 v 0 l 707.59,1016.11 c 16.81,24.68 18.36,49.79 4.63,75.31 v 0 c -12.89,25.81 -34.18,38.71 -63.87,38.71 v 0 h -629.02 c -15.69,0 -23.53,7.86 -23.53,23.57 v 0 288.21 c 0,15.99 7.84,23.98 23.53,23.98 v 0 H 3384.2 c 15.69,0 23.53,-7.99 23.53,-23.98 z M 2075.31,951.855 v -22.3 c 0,-12.621 -6.44,-18.934 -19.33,-18.934 v 0 c -12.6,0 -18.9,6.313 -18.9,18.934 v 0 22.3 c 0,10.938 6.3,16.411 18.9,16.411 v 0 c 12.89,0 19.33,-5.473 19.33,-16.411 z m -2.94,-78.261 V 765.461 c 0,-12.902 -6.44,-19.352 -19.33,-19.352 v 0 c -12.6,0 -18.9,6.45 -18.9,19.352 v 0 108.133 c 0,10.66 6.3,15.988 18.9,15.988 v 0 c 12.89,0 19.33,-5.328 19.33,-15.988 z m -78.15,39.972 V 781.871 c 0,-12.902 -6.45,-19.355 -19.33,-19.355 v 0 c -12.89,0 -19.33,6.453 -19.33,19.355 v 0 131.695 c 0,12.622 6.44,18.934 19.33,18.934 v 0 c 12.88,0 19.33,-6.312 19.33,-18.934 z m 0,-196.91 V 701.93 c 0,-12.903 -6.45,-19.356 -19.33,-19.356 v 0 c -12.89,0 -19.33,6.453 -19.33,19.356 v 0 14.726 c 0,12.903 6.44,19.356 19.33,19.356 v 0 c 12.88,0 19.33,-6.453 19.33,-19.356 z m 78.15,1724.654 v -11.78 c 0,-12.9 -6.44,-19.36 -19.33,-19.36 v 0 c -12.6,0 -18.9,6.46 -18.9,19.36 v 0 11.78 c 0,9.82 6.3,14.73 18.9,14.73 v 0 c 12.89,0 19.33,-4.91 19.33,-14.73 z m 0,-72.37 v -114.02 c 0,-12.63 -6.44,-18.94 -19.33,-18.94 v 0 c -12.6,0 -18.9,6.31 -18.9,18.94 v 0 114.02 c 0,9.82 6.3,14.73 18.9,14.73 v 0 c 12.89,0 19.33,-4.91 19.33,-14.73 z m -78.15,16.41 v -115.71 c 0,-12.62 -6.45,-18.93 -19.33,-18.93 v 0 c -12.89,0 -19.33,6.31 -19.33,18.93 v 0 115.71 c 0,12.62 6.44,18.93 19.33,18.93 v 0 c 12.88,0 19.33,-6.31 19.33,-18.93 z m 0,-188.08 v -50.07 c 0,-12.9 -6.45,-19.35 -19.33,-19.35 v 0 c -12.89,0 -19.33,6.45 -19.33,19.35 v 0 50.07 c 0,12.91 6.44,19.36 19.33,19.36 v 0 c 12.88,0 19.33,-6.45 19.33,-19.36 z M 3384.2,2650 H 2192.13 c -27.74,0 -50.84,-10.38 -69.33,-31.13 v 0 l -184.89,-183.45 c -0.84,-1.97 -1.82,-3.37 -2.94,-4.21 v 0 c -20.73,-18.79 -31.09,-42.07 -31.09,-69.84 v 0 -288.22 c 0,-25.8 9.38,-47.96 28.15,-66.47 v 0 c 18.77,-18.8 41.46,-28.2 68.07,-28.2 v 0 h 629.03 L 1921.52,960.691 c -11.76,-15.707 -17.64,-33.941 -17.64,-54.699 v 0 -279.375 c 0,-26.648 9.38,-49.371 28.15,-68.164 v 0 c 18.77,-18.793 41.46,-28.191 68.07,-28.191 v 0 h 1192.08 c 27.45,0 50.56,10.379 69.33,31.136 v 0 c 1.96,0.844 2.94,1.825 2.94,2.946 v 0 l 162.61,162.832 c 1.96,0.84 2.94,1.82 2.94,2.945 v 0 c 33.34,18.512 50.01,46 50.01,82.465 v 0 285.694 c 0,26.64 -9.25,49.36 -27.74,68.16 v 0 c -18.77,18.79 -41.45,28.19 -68.07,28.19 v 0 h -608.85 l 688.69,1011.48 c 10.64,15.71 15.97,33.52 15.97,53.44 v 0 294.1 c 0,26.65 -9.25,49.37 -27.74,68.16 v 0 c -18.77,18.8 -41.45,28.19 -68.07,28.19 z M 2633.75,1595.18 h 242.45 c 15.68,0 23.53,7.86 23.53,23.56 v 0 c 0,15.99 -7.85,23.99 -23.53,23.99 v 0 h -242.45 c -16.81,0 -25.21,-8 -25.21,-23.99 v 0 c 0,-15.7 8.4,-23.56 25.21,-23.56 z m 81.09,124.54 h 239.51 c 15.69,0 23.53,7.86 23.53,23.57 v 0 c 0,15.7 -7.84,23.56 -23.53,23.56 v 0 h -239.51 c -16.53,0 -24.79,-7.86 -24.79,-23.56 v 0 c 0,-15.71 8.26,-23.57 24.79,-23.57 z m -169.75,-248.66 h 263.04 c 15.68,0 23.52,7.85 23.52,23.56 v 0 c 0,15.71 -7.84,23.56 -23.52,23.56 v 0 h -263.04 c -15.69,0 -23.54,-7.85 -23.54,-23.56 v 0 c 0,-15.71 7.85,-23.56 23.54,-23.56 z m -94.55,-124.12 h 264.3 c 15.97,0 23.95,7.85 23.95,23.56 v 0 c 0,15.71 -7.98,23.56 -23.95,23.56 v 0 h -264.3 c -15.68,0 -23.53,-7.85 -23.53,-23.56 v 0 c 0,-15.71 7.85,-23.56 23.53,-23.56 z m -85.72,-124.54 h 274.81 c 15.69,0 23.53,7.99 23.53,23.98 v 0 c 0,15.71 -7.84,23.56 -23.53,23.56 v 0 h -274.81 c -16.8,0 -25.21,-7.85 -25.21,-23.56 v 0 c 0,-15.99 8.41,-23.98 25.21,-23.98 z m -78.15,-124.12 h 360.52 c 15.69,0 23.53,7.85 23.53,23.56 v 0 c 0,16.83 -7.84,25.24 -23.53,25.24 v 0 h -360.52 c -15.69,0 -23.53,-8.41 -23.53,-25.24 v 0 c 0,-15.71 7.84,-23.56 23.53,-23.56 z m -44.54,-124.124 h 1078.62 c 15.69,0 23.54,7.852 23.54,23.559 v 0 c 0,16.835 -7.85,25.245 -23.54,25.245 v 0 H 2242.13 c -15.69,0 -23.53,-8.41 -23.53,-25.245 v 0 c 0,-15.707 7.84,-23.559 23.53,-23.559 z m 0,-122.859 h 1078.62 c 15.69,0 23.54,7.851 23.54,23.562 v 0 c 0,15.707 -7.85,23.559 -23.54,23.559 v 0 H 2242.13 c -15.69,0 -23.53,-7.852 -23.53,-23.559 v 0 c 0,-15.711 7.84,-23.562 23.53,-23.562 z m 555.49,990.863 h 248.33 c 15.69,0 23.53,8.42 23.53,25.25 v 0 c 0,15.7 -7.84,23.56 -23.53,23.56 v 0 h -248.33 c -15.69,0 -23.53,-7.86 -23.53,-23.56 v 0 c 0,-16.83 7.84,-25.25 23.53,-25.25 z m 78.58,124.54 h 244.96 c 15.69,0 23.54,7.86 23.54,23.57 v 0 c 0,16.82 -7.85,25.24 -23.54,25.24 v 0 H 2876.2 c -15.97,0 -23.96,-8.42 -23.96,-25.24 v 0 c 0,-15.71 7.99,-23.57 23.96,-23.57 z m 89.91,124.12 h 248.34 c 15.68,0 23.53,7.86 23.53,23.57 v 0 c 0,15.7 -7.85,23.56 -23.53,23.56 v 0 h -248.34 c -15.68,0 -23.52,-7.86 -23.52,-23.56 v 0 c 0,-15.71 7.84,-23.57 23.52,-23.57 z m -5.88,124.13 h 336.99 c 15.69,0 23.53,7.99 23.53,23.98 v 0 c 0,15.71 -7.84,23.56 -23.53,23.56 v 0 h -336.99 c -15.68,0 -23.53,-7.85 -23.53,-23.56 v 0 c 0,-15.99 7.85,-23.98 23.53,-23.98 z m -702.98,124.54 h 1053 c 15.69,0 23.53,7.85 23.53,23.56 v 0 c 0,15.71 -7.84,23.56 -23.53,23.56 v 0 h -1053 c -15.96,0 -23.95,-7.85 -23.95,-23.56 v 0 c 0,-15.71 7.99,-23.56 23.95,-23.56 z m 1053,124.12 h -1053 c -15.96,0 -23.95,7.85 -23.95,23.56 v 0 c 0,15.71 7.99,23.56 23.95,23.56 v 0 h 1053 c 15.69,0 23.53,-7.85 23.53,-23.56 v 0 c 0,-15.71 -7.84,-23.56 -23.53,-23.56 v 0"
             style="fill:#f05742;fill-opacity:1;fill-rule:nonzero;stroke:none"
             id="path22" /></g></g><g
         id="g24"><g
           id="g26"
           clip-path="url(#clipPath30)"><path
             d="m 703.27,359.246 v -51.398 c 0,-3 -1.5,-4.5 -4.497,-4.5 v 0 H 554.902 c -3.496,0 -6.468,-1.227 -8.918,-3.68 v 0 c -2.496,-2.449 -3.746,-5.449 -3.746,-9.004 v 0 -46.144 c 0,-3.5 1.25,-6.504 3.746,-9.004 v 0 c 2.45,-2.45 5.422,-3.676 8.918,-3.676 v 0 h 126.711 c 2.996,0 4.496,-1.5 4.496,-4.504 v 0 -51.395 c 0,-2.8 -1.5,-4.203 -4.496,-4.203 v 0 H 554.902 c -3.496,0 -6.468,-1.25 -8.918,-3.75 v 0 c -2.496,-2.601 -3.746,-5.679 -3.746,-9.23 v 0 -39.766 c 0,-3.554 1.25,-6.554 3.746,-9.008 v 0 c 2.45,-2.449 5.422,-3.675 8.918,-3.675 v 0 h 143.871 c 2.997,0 4.497,-1.5 4.497,-4.5 v 0 -51.4731 c 0,-2.8007 -1.5,-4.2031 -4.497,-4.2031 v 0 H 486.414 c -2.801,0 -4.199,1.4024 -4.199,4.2031 v 0 308.9101 c 0,2.852 1.398,4.277 4.199,4.277 v 0 h 212.359 c 2.997,0 4.497,-1.425 4.497,-4.277 z M 468.805,95.7305 V 67.8164 c 0,-2.3008 -1.149,-3.4492 -3.45,-3.4492 v 0 c -2.296,0 -3.445,1.1484 -3.445,3.4492 v 0 27.9141 c 0,1.75 1.149,2.625 3.445,2.625 v 0 c 2.301,0 3.45,-0.875 3.45,-2.625 z m -6.895,17.4065 -0.523,189.16 c 0,2.301 1.148,3.449 3.445,3.449 v 0 c 2.297,0 3.445,-1.148 3.445,-3.449 v 0 l 0.528,-189.16 c 0,-2.301 -1.149,-3.449 -3.45,-3.449 v 0 c -2.296,0 -3.445,1.148 -3.445,3.449 z m -11.015,179.629 v 0 c -2.297,0 -3.446,1.152 -3.446,3.453 v 0 l -0.301,20.332 c 0,2.254 1.149,3.379 3.446,3.379 v 0 0 c 2.297,0 3.449,-1.125 3.449,-3.379 v 0 l 0.223,-20.332 c 0,-2.301 -1.125,-3.453 -3.371,-3.453 z m 3.148,-12.606 V 129.27 c 0,-2.301 -1.152,-3.454 -3.449,-3.454 v 0 c -2.297,0 -3.446,1.153 -3.446,3.454 v 0 150.89 c 0,1.903 1.149,2.852 3.446,2.852 v 0 c 2.297,0 3.449,-0.949 3.449,-2.852 z m 0,-163.347 V 93.9297 c 0,-2.3008 -1.152,-3.4531 -3.449,-3.4531 v 0 c -2.297,0 -3.446,1.1523 -3.446,3.4531 v 0 22.8833 c 0,1.953 1.149,2.929 3.446,2.929 v 0 c 2.297,0 3.449,-0.976 3.449,-2.929 z M 698.773,377.48 H 486.414 c -4.746,0 -9.043,-2.027 -12.891,-6.078 v 0 l -32.968,-32.941 c -3.649,-3.551 -5.473,-7.703 -5.473,-12.453 v 0 -308.8361 c 0,-4.7539 1.648,-8.80471 4.945,-12.15627 v 0 c 3.348,-3.35157 7.395,-5.0273488 12.141,-5.0273488 v 0 h 212.359 c 4.899,0 9.02,1.8515588 12.364,5.5507788 v 0 c 20.183,20.05864 30.273,30.08984 30.273,30.08984 v 0 c 5.797,3.5 8.695,8.4024 8.695,14.707 v 0 52.5231 c 0,4.75 -1.675,8.801 -5.023,12.153 v 0 c -3.297,3.351 -7.316,5.027 -12.063,5.027 v 0 H 554.902 v 5.481 h 92.465 c 4.946,0 9.071,1.847 12.367,5.55 v 0 l 30.348,30.387 c 5.793,3.305 8.691,8.129 8.691,14.484 v 0 52.524 c 0,4.699 -1.675,8.726 -5.019,12.078 v 0 c -3.348,3.551 -7.395,5.328 -12.141,5.328 v 0 H 554.902 v 11.555 h 109.625 c 4.746,0 8.868,1.777 12.364,5.328 v 0 c 20.035,20.008 30.125,30.113 30.273,30.312 v 0 c 5.797,3.352 8.695,8.278 8.695,14.782 v 0 52.449 c 0,4.75 -1.675,8.805 -5.023,12.156 v 0 c -3.297,3.352 -7.316,5.027 -12.063,5.027 z M 494.055,56.1875 H 692.18 c 2.797,0 4.195,1.4023 4.195,4.2031 v 0 c 0,3 -1.398,4.5 -4.195,4.5 v 0 H 494.055 c -2.797,0 -4.196,-1.5 -4.196,-4.5 v 0 c 0,-2.8008 1.399,-4.2031 4.196,-4.2031 z m 0,22.4336 H 692.18 c 2.797,0 4.195,1.4023 4.195,4.2031 v 0 c 0,2.8008 -1.398,4.2031 -4.195,4.2031 v 0 H 494.055 c -2.797,0 -4.196,-1.4023 -4.196,-4.2031 v 0 c 0,-2.8008 1.399,-4.2031 4.196,-4.2031 z m 0,22.1369 h 37.691 c 2.797,0 4.195,1.398 4.195,4.203 v 0 c 0,2.801 -1.398,4.199 -4.195,4.199 v 0 h -37.691 c -2.797,0 -4.196,-1.398 -4.196,-4.199 v 0 c 0,-2.805 1.399,-4.203 4.196,-4.203 z m 0,22.133 h 37.691 c 2.797,0 4.195,1.504 4.195,4.504 v 0 c 0,2.8 -1.398,4.203 -4.195,4.203 v 0 h -37.691 c -2.797,0 -4.196,-1.403 -4.196,-4.203 v 0 c 0,-3 1.399,-4.504 4.196,-4.504 z m 0,22.437 h 37.691 c 2.797,0 4.195,1.399 4.195,4.199 v 0 c 0,2.852 -1.398,4.278 -4.195,4.278 v 0 h -37.691 c -2.797,0 -4.196,-1.426 -4.196,-4.278 v 0 c 0,-2.8 1.399,-4.199 4.196,-4.199 z m 0,22.133 h 37.691 c 2.797,0 4.195,1.426 4.195,4.277 v 0 c 0,2.953 -1.398,4.426 -4.195,4.426 v 0 h -37.691 c -2.797,0 -4.196,-1.473 -4.196,-4.426 v 0 c 0,-2.851 1.399,-4.277 4.196,-4.277 z m 0,22.434 h 178.117 c 2.945,0 4.422,1.402 4.422,4.203 v 0 c 0,2.851 -1.477,4.277 -4.422,4.277 v 0 H 494.055 c -2.797,0 -4.196,-1.426 -4.196,-4.277 v 0 c 0,-2.801 1.399,-4.203 4.196,-4.203 z m 0,22.21 h 178.117 c 2.945,0 4.422,1.403 4.422,4.204 v 0 c 0,3 -1.477,4.5 -4.422,4.5 v 0 H 494.055 c -2.797,0 -4.196,-1.5 -4.196,-4.5 v 0 c 0,-2.801 1.399,-4.204 4.196,-4.204 z m 0,22.137 h 36.343 c 2.848,0 4.27,1.5 4.27,4.5 v 0 c 0,2.801 -1.422,4.203 -4.27,4.203 v 0 h -36.343 c -2.797,0 -4.196,-1.402 -4.196,-4.203 v 0 c 0,-3 1.399,-4.5 4.196,-4.5 z m 0,22.434 h 36.343 c 2.848,0 4.27,1.402 4.27,4.203 v 0 c 0,2.801 -1.422,4.199 -4.27,4.199 v 0 h -36.343 c -2.797,0 -4.196,-1.398 -4.196,-4.199 v 0 c 0,-2.801 1.399,-4.203 4.196,-4.203 z m 0,22.133 h 36.343 c 2.848,0 4.27,1.402 4.27,4.203 v 0 c 0,3.004 -1.422,4.504 -4.27,4.504 v 0 h -36.343 c -2.797,0 -4.196,-1.5 -4.196,-4.504 v 0 c 0,-2.801 1.399,-4.203 4.196,-4.203 z m 0,22.437 h 36.343 c 2.848,0 4.27,1.399 4.27,4.199 v 0 c 0,2.805 -1.422,4.203 -4.27,4.203 v 0 h -36.343 c -2.797,0 -4.196,-1.398 -4.196,-4.203 v 0 c 0,-2.8 1.399,-4.199 4.196,-4.199 z m 0,22.133 H 692.18 c 2.797,0 4.195,1.402 4.195,4.203 v 0 c 0,3 -1.398,4.5 -4.195,4.5 v 0 H 494.055 c -2.797,0 -4.196,-1.5 -4.196,-4.5 v 0 c 0,-2.801 1.399,-4.203 4.196,-4.203 z M 692.18,345.516 H 494.055 c -2.797,0 -4.196,1.5 -4.196,4.5 v 0 c 0,2.8 1.399,4.203 4.196,4.203 v 0 H 692.18 c 2.797,0 4.195,-1.403 4.195,-4.203 v 0 c 0,-3 -1.398,-4.5 -4.195,-4.5 z m 248.402,-94.918 v -21.61 h -40.84 v 28.438 h 30.574 c 4.547,0 7.891,-0.074 10.039,-0.227 v 0 c 0.153,-1.949 0.227,-4.148 0.227,-6.601 z m 35.293,52.449 c -2.449,0.348 -6.219,0.523 -11.316,0.523 v 0 h -51.403 c -7.343,0 -12.59,-0.347 -15.734,-1.05 v 0 c -5.445,-1.2 -8.719,-4.528 -9.817,-9.977 v 0 c -0.5,-2.301 -0.75,-5.203 -0.75,-8.707 v 0 -55.973 c 0,-3.652 1.223,-6.726 3.672,-9.23 v 0 c 2.446,-2.449 5.52,-3.676 9.215,-3.676 v 0 h 75.082 c 3.5,0 6.571,1.227 9.219,3.676 v 0 c 2.449,2.504 3.672,5.578 3.672,9.23 v 0 55.973 c 0,2.805 -0.176,5.527 -0.524,8.18 v 0 c -0.699,6.652 -4.472,10.332 -11.316,11.031 z m 71.935,-19.211 V 50.3359 c 0,-2.8007 -1.5,-4.2031 -4.49,-4.2031 v 0 h -51.336 c -2.847,0 -4.269,1.4024 -4.269,4.2031 v 0 91.5391 c 0,3.703 -1.223,6.777 -3.672,9.23 v 0 c -2.648,2.5 -5.719,3.75 -9.219,3.75 v 0 h -75.082 c -3.695,0 -6.769,-1.25 -9.215,-3.75 v 0 c -2.449,-2.453 -3.672,-5.527 -3.672,-9.23 v 0 -91.5391 c 0,-2.8007 -1.5,-4.2031 -4.496,-4.2031 v 0 h -51.328 c -2.847,0 -4.273,1.4024 -4.273,4.2031 v 0 233.5001 c 0,24.613 8.269,44.047 24.805,58.301 v 0 c 16.683,14.258 39.238,21.386 67.664,21.386 v 0 h 36.117 c 28.472,0 50.956,-7.128 67.436,-21.386 v 0 c 16.69,-14.254 25.03,-33.688 25.03,-58.301 z M 971.379,97.832 971.152,89.6523 c 0,-2.1015 -1.148,-3.1523 -3.445,-3.1523 v 0 0 c -2.246,0 -3.371,1.1523 -3.371,3.4531 v 0 l 0.223,8.1797 c 0,0.8477 0.351,1.7227 1.05,2.6252 v 0 c 0.7,0.699 1.5,0.976 2.399,0.824 v 0 c 2.246,-0.199 3.371,-1.449 3.371,-3.75 z M 970.855,81.25 V 53.0352 c 0,-2.3008 -1.125,-3.4493 -3.371,-3.4493 v 0 c -2.3,0 -3.449,1.1485 -3.449,3.4493 v 0 28.2148 c 0,1.8984 1.149,2.8516 3.449,2.8516 v 0 c 2.246,0 3.371,-0.9532 3.371,-2.8516 z M 959.84,89.9531 V 67.2188 c 0,-2.254 -1.149,-3.379 -3.449,-3.379 v 0 c -2.297,0 -3.446,1.125 -3.446,3.379 v 0 22.7343 c 0,2.3008 1.149,3.4492 3.446,3.4492 v 0 c 2.3,0 3.449,-1.1484 3.449,-3.4492 z m 0,-32.7148 v -7.9531 c 0,-2.25 -1.149,-3.3789 -3.449,-3.3789 v 0 c -2.297,0 -3.446,1.1289 -3.446,3.3789 v 0 7.9531 c 0,2.3008 1.149,3.4531 3.446,3.4531 v 0 c 2.3,-0.5508 3.449,-1.7031 3.449,-3.4531 z M 809.375,71.7188 v 0 c -2.25,0 -3.375,1.0507 -3.375,3.1523 v 0 l -0.523,135.8829 c 0,2.301 1.125,3.453 3.371,3.453 v 0 c 0.699,0.352 1.5,0.074 2.398,-0.824 v 0 c 0.699,-0.703 1.051,-1.578 1.051,-2.629 v 0 L 812.82,75.1719 c 0,-2.3008 -1.148,-3.4531 -3.445,-3.4531 z m -3.672,154.8672 v 33.766 c 0,2.652 1.149,3.8 3.445,3.453 v 0 c 2.297,0 3.45,-1.153 3.45,-3.453 v 0 -33.766 c 0,-2.301 -1.153,-3.449 -3.45,-3.449 v 0 c -2.296,0 -3.445,1.148 -3.445,3.449 z m -7.644,17.109 V 94.4531 c 0,-2.3008 -1.149,-3.4492 -3.446,-3.4492 v 0 c -2.25,0 -3.375,1.1484 -3.375,3.4492 v 0 149.2419 c 0,2.301 1.125,3.453 3.375,3.453 v 0 c 2.297,0 3.446,-1.152 3.446,-3.453 z m 0,-166.9489 V 62.2656 c 0,-2.5 -1.149,-3.7539 -3.446,-3.7539 v 0 c -2.25,0 -3.375,1.2539 -3.375,3.7539 v 0 14.4805 c 0,2.3008 1.125,3.4531 3.375,3.4531 v 0 c 2.297,0 3.446,-1.1523 3.446,-3.4531 z M 955.344,377.48 h -36.117 c -32.321,0 -58.051,-8.531 -77.184,-25.585 v 0 c -22.277,-22.512 -33.52,-33.766 -33.719,-33.766 v 0 c -19.133,-16.91 -28.699,-39.418 -28.699,-67.531 v 0 -233.4261 c 0,-4.7539 1.676,-8.80471 5.02,-12.15627 v 0 c 3.347,-3.35157 7.394,-5.0273488 12.14,-5.0273488 v 0 h 51.328 c 4.946,0 9.067,1.8515588 12.364,5.5507788 v 0 c 0.203,0 0.476,0.17578 0.824,0.52735 v 0 l 29,29.03519 0.523,0.5273 c 5.946,3.5 8.918,8.4024 8.918,14.707 v 0 58.3011 h 40.84 V 17.1719 c 0,-4.7539 1.672,-8.80471 5.02,-12.15627 v 0 c 3.347,-3.35157 7.394,-5.0273488 12.14,-5.0273488 v 0 h 51.328 c 4.95,0 9.07,1.8515588 12.36,5.5507788 v 0 c 0.2,0 10.14,9.85544 29.83,29.56254 v 0 l 0.52,0.5273 v 0.2266 c 5.8,3.3515 8.69,8.1758 8.69,14.4804 v 0 234.5511 c 0,28.113 -9.49,50.625 -28.47,67.531 v 0 c -19.13,16.707 -44.684,25.062 -76.656,25.062 z M 1005.92,54.3125 h 27.43 c 2.95,0 4.42,1.5 4.42,4.5 v 0 c 0,3.0039 -1.47,4.5039 -4.42,4.5039 v 0 h -27.43 c -2.99,0 -4.49,-1.5 -4.49,-4.5039 v 0 c 0,-3 1.5,-4.5 4.49,-4.5 z m -165.674,0 h 27.352 c 2.996,0 4.496,1.5 4.496,4.5 v 0 c 0,3.0039 -1.5,4.5039 -4.496,4.5039 v 0 h -27.352 c -2.996,0 -4.496,-1.5 -4.496,-4.5039 v 0 c 0,-3 1.5,-4.5 4.496,-4.5 z m 165.674,21.3828 h 27.43 c 2.95,0 4.42,1.5 4.42,4.5039 v 0 c 0,3 -1.47,4.5 -4.42,4.5 v 0 h -27.43 c -2.99,0 -4.49,-1.5 -4.49,-4.5 v 0 c 0,-3.0039 1.5,-4.5039 4.49,-4.5039 z m -165.674,0 h 27.352 c 2.996,0 4.496,1.5 4.496,4.5039 v 0 c 0,3 -1.5,4.5 -4.496,4.5 v 0 h -27.352 c -2.996,0 -4.496,-1.5 -4.496,-4.5 v 0 c 0,-3.0039 1.5,-4.5039 4.496,-4.5039 z m 165.674,21.9102 h 27.43 c 2.95,0 4.42,1.5 4.42,4.5035 v 0 c 0,2.95 -1.47,4.426 -4.42,4.426 v 0 h -27.43 c -2.99,0 -4.49,-1.476 -4.49,-4.426 v 0 c 0,-3.0035 1.5,-4.5035 4.49,-4.5035 z m -165.674,0 h 27.352 c 2.996,0 4.496,1.5 4.496,4.5035 v 0 c 0,2.95 -1.5,4.426 -4.496,4.426 v 0 h -27.352 c -2.996,0 -4.496,-1.476 -4.496,-4.426 v 0 c 0,-3.0035 1.5,-4.5035 4.496,-4.5035 z m 165.674,21.6095 h 27.43 c 2.95,0 4.42,1.5 4.42,4.504 v 0 c 0,3 -1.47,4.5 -4.42,4.5 v 0 h -27.43 c -2.99,0 -4.49,-1.5 -4.49,-4.5 v 0 c 0,-3.004 1.5,-4.504 4.49,-4.504 z m -165.674,0 h 27.352 c 2.996,0 4.496,1.5 4.496,4.504 v 0 c 0,3 -1.5,4.5 -4.496,4.5 v 0 h -27.352 c -2.996,0 -4.496,-1.5 -4.496,-4.5 v 0 c 0,-3.004 1.5,-4.504 4.496,-4.504 z m 165.674,22.961 h 27.43 c 2.95,0 4.42,1.5 4.42,4.5 v 0 c 0,2.953 -1.47,4.429 -4.42,4.429 v 0 h -27.43 c -2.99,0 -4.49,-1.476 -4.49,-4.429 v 0 c 0,-3 1.5,-4.5 4.49,-4.5 z m -165.674,0 h 27.352 c 2.996,0 4.496,1.5 4.496,4.5 v 0 c 0,2.953 -1.5,4.429 -4.496,4.429 v 0 h -27.352 c -2.996,0 -4.496,-1.476 -4.496,-4.429 v 0 c 0,-3 1.5,-4.5 4.496,-4.5 z m 165.674,66.48 h 27.43 c 2.95,0 4.42,1.5 4.42,4.5 v 0 c 0,2.953 -1.47,4.426 -4.42,4.426 v 0 h -27.43 c -2.99,0 -4.49,-1.473 -4.49,-4.426 v 0 c 0,-3 1.5,-4.5 4.49,-4.5 z m -165.674,0 h 27.352 c 2.996,0 4.496,1.5 4.496,4.5 v 0 c 0,2.953 -1.5,4.426 -4.496,4.426 v 0 h -27.352 c -2.996,0 -4.496,-1.473 -4.496,-4.426 v 0 c 0,-3 1.5,-4.5 4.496,-4.5 z m 165.674,21.383 h 27.43 c 2.95,0 4.42,1.477 4.42,4.426 v 0 c 0,3.004 -1.47,4.504 -4.42,4.504 v 0 h -27.43 c -2.99,0 -4.49,-1.5 -4.49,-4.504 v 0 c 0,-2.949 1.5,-4.426 4.49,-4.426 z m -165.674,0 h 27.352 c 2.996,0 4.496,1.477 4.496,4.426 v 0 c 0,3.004 -1.5,4.504 -4.496,4.504 v 0 h -27.352 c -2.996,0 -4.496,-1.5 -4.496,-4.504 v 0 c 0,-2.949 1.5,-4.426 4.496,-4.426 z m 165.674,21.836 h 27.43 c 2.95,0 4.42,1.5 4.42,4.5 v 0 c 0,3.004 -1.47,4.504 -4.42,4.504 v 0 h -27.43 c -2.99,0 -4.49,-1.5 -4.49,-4.504 v 0 c 0,-3 1.5,-4.5 4.49,-4.5 z m -165.674,0 h 27.352 c 2.996,0 4.496,1.5 4.496,4.5 v 0 c 0,3.004 -1.5,4.504 -4.496,4.504 v 0 h -27.352 c -2.996,0 -4.496,-1.5 -4.496,-4.504 v 0 c 0,-3 1.5,-4.5 4.496,-4.5 z m 165.674,21.684 h 27.43 c 2.95,0 4.42,1.476 4.42,4.425 v 0 c 0,3.004 -1.47,4.504 -4.42,4.504 v 0 h -27.43 c -2.99,0 -4.49,-1.5 -4.49,-4.504 v 0 c 0,-2.949 1.5,-4.425 4.49,-4.425 z m -165.674,0 h 27.352 c 2.996,0 4.496,1.476 4.496,4.425 v 0 c 0,3.004 -1.5,4.504 -4.496,4.504 v 0 h -27.352 c -2.996,0 -4.496,-1.5 -4.496,-4.504 v 0 c 0,-2.949 1.5,-4.425 4.496,-4.425 z m 165.674,22.961 h 27.43 c 2.95,0 4.42,1.472 4.42,4.425 v 0 c 0,3 -1.47,4.5 -4.42,4.5 v 0 h -27.43 c -2.99,0 -4.49,-1.5 -4.49,-4.5 v 0 c 0,-2.953 1.5,-4.425 4.49,-4.425 z m -165.674,0 h 27.352 c 2.996,0 4.496,1.472 4.496,4.425 v 0 c 0,3 -1.5,4.5 -4.496,4.5 v 0 h -27.352 c -2.996,0 -4.496,-1.5 -4.496,-4.5 v 0 c 0,-2.953 1.5,-4.425 4.496,-4.425 z m 51.106,44.269 h 92.992 c 2.945,0 4.418,1.5 4.418,4.5 v 0 c 0,3.004 -1.473,4.504 -4.418,4.504 v 0 h -92.992 c -3,0 -4.497,-1.5 -4.497,-4.504 v 0 c 0,-3 1.497,-4.5 4.497,-4.5 z m -50.879,-175.43 h 192.877 c 2.95,0 4.42,1.5 4.42,4.504 v 0 c 0,3 -1.47,4.5 -4.42,4.5 v 0 H 840.473 c -3,0 -4.496,-1.5 -4.496,-4.5 v 0 c 0,-3.004 1.496,-4.504 4.496,-4.504 z m 0,21.688 h 192.877 c 2.95,0 4.42,1.473 4.42,4.426 v 0 c 0,3 -1.47,4.5 -4.42,4.5 v 0 H 840.473 c -3,0 -4.496,-1.5 -4.496,-4.5 v 0 c 0,-2.953 1.496,-4.426 4.496,-4.426 z M 1017.24,318.879 H 858.379 c -2.996,0 -4.496,1.5 -4.496,4.5 v 0 c 0,3.004 1.5,4.504 4.496,4.504 v 0 h 158.861 c 2.99,0 4.49,-1.5 4.49,-4.504 v 0 c 0,-3 -1.5,-4.5 -4.49,-4.5 z m 219.47,-194.41 v 6.902 h 34.48 c 2.44,0 4.39,-0.277 5.84,-0.824 v 0 c 0.5,-1.754 0.85,-6.055 1.05,-12.906 v 0 h -22.18 c -10.69,0 -16.83,0.699 -18.44,2.101 v 0 c -0.5,0 -0.75,1.574 -0.75,4.727 z m 41.37,128.23 v -3.676 h -34.54 c -2.45,0 -4.3,0.176 -5.55,0.524 v 0 c -0.5,1.551 -0.85,4.879 -1.05,9.98 v 0 h 21.88 c 10.69,0 16.94,-0.699 18.73,-2.101 v 0 c 0.36,0 0.53,-1.574 0.53,-4.727 z m 104.83,32.715 v -16.883 c 0,-2.801 -1.32,-4.203 -3.97,-4.203 v 0 h -50.58 c -2.8,0 -4.2,1.402 -4.2,4.203 v 0 16.883 c 0,3 -0.27,5.625 -0.82,7.879 v 0 c -0.7,2.648 -2.17,4.852 -4.42,6.602 v 0 c -4.05,3.203 -12.84,4.8 -26.38,4.8 v 0 h -49 c -3.7,0 -6.77,-0.375 -9.22,-1.125 v 0 c -4.2,-1.199 -7,-3.824 -8.39,-7.879 v 0 c -1.1,-3.351 -1.65,-9.675 -1.65,-18.98 v 0 -13.207 c 0,-9.305 0.55,-15.731 1.65,-19.285 v 0 c 1.55,-3.852 4.34,-6.477 8.39,-7.875 v 0 c 2.45,-0.703 5.52,-1.051 9.22,-1.051 v 0 h 61.37 c 24.07,0 43.13,-8.105 57.17,-24.313 v 0 c 13.89,-16.308 20.83,-38.441 20.83,-66.402 v 0 -8.707 c 0,-27.961 -6.94,-50.0468 -20.83,-66.2538 v 0 C 1348.04,53.2617 1328.98,45.082 1304.91,45.082 v 0 h -58.75 c -0.35,0 -0.78,0.1016 -1.28,0.3008 v 0 c -1.04,0.5 -2.12,0.75 -3.22,0.75 v 0 c -23.87,2.4531 -42.56,10.5547 -56.05,24.3125 v 0 c -13.54,13.7031 -20.31,31.3637 -20.31,52.9727 v 0 16.883 c 0,2.851 1.4,4.277 4.2,4.277 v 0 h 50.58 c 2.8,0 4.2,-1.426 4.2,-4.277 v 0 -16.883 c 0,-2.953 0.27,-5.578 0.82,-7.879 v 0 c 0.7,-2.652 2.2,-4.851 4.5,-6.601 v 0 c 4.04,-3.153 12.81,-4.731 26.3,-4.731 v 0 h 49.01 c 3.69,0 6.77,0.352 9.21,1.051 v 0 c 4.25,1.203 7.07,3.828 8.47,7.879 v 0 c 1.05,3.351 1.57,9.679 1.57,18.984 v 0 16.133 c 0,9.504 -0.62,15.906 -1.87,19.207 v 0 c -1.4,4.051 -4.2,6.703 -8.39,7.953 v 0 c -2.45,0.703 -5.45,1.051 -8.99,1.051 v 0 h -61.37 c -24.08,0 -43.14,8.078 -57.18,24.234 v 0 c -14.04,16.36 -21.06,38.52 -21.06,66.481 v 0 5.554 c 0,27.961 7.02,50.121 21.06,66.477 v 0 c 14.04,16.207 33.1,24.312 57.18,24.312 v 0 c 36.51,-0.199 57.32,-0.476 62.41,-0.824 v 0 c 0.21,0 0.48,-0.101 0.83,-0.301 v 0 c 23.88,-2.453 42.59,-10.429 56.12,-23.937 v 0 c 13.34,-13.754 20.01,-31.438 20.01,-53.047 z M 1152.94,129.496 v -9.98 c -0.2,-2.153 -1.35,-3.227 -3.44,-3.227 v 0 0 c -2.3,0 -3.45,1.152 -3.45,3.453 v 0 l 0.3,10.055 c 0,0.848 0.35,1.723 1.05,2.625 v 0 c 0.7,0.699 1.49,0.875 2.39,0.523 v 0 c 2.25,0 3.3,-1.148 3.15,-3.449 z m -0.3,-20.336 V 89.1289 c 0,-2.1016 -1.15,-3.1523 -3.44,-3.1523 v 0 c -2.25,0 -3.38,1.0507 -3.38,3.1523 v 0 20.0311 c 0,1.801 1.13,2.703 3.38,2.703 v 0 c 2.29,0 3.44,-0.902 3.44,-2.703 z m -13.71,2.926 V 96.7813 c 0,-2.25 -1.13,-3.379 -3.37,-3.379 v 0 c -2.3,0 -3.45,1.129 -3.45,3.379 v 0 15.3047 c 0,2.102 1.15,3.152 3.45,3.152 v 0 c 2.24,0 3.37,-1.05 3.37,-3.152 z m 0,-26.6368 v -5.25 c 0,-2.3008 -1.13,-3.4531 -3.37,-3.4531 v 0 c -2.3,0 -3.45,1.1523 -3.45,3.4531 v 0 5.25 c 0,1.9531 1.15,2.9258 3.45,2.9258 v 0 c 2.24,0 3.37,-0.9727 3.37,-2.9258 z m 14.01,197.8638 v -10.055 c -0.2,-2.301 -1.35,-3.453 -3.44,-3.453 v 0 0 c -2.3,0 -3.45,1.152 -3.45,3.453 v 0 l 0.3,10.055 c 0,2.101 1.15,3.226 3.44,3.375 v 0 c 2.25,-0.149 3.3,-1.274 3.15,-3.375 z m -0.3,-20.559 v -34.59 c 0,-2.301 -1.15,-3.453 -3.44,-3.453 v 0 c -2.25,0 -3.38,1.152 -3.38,3.453 v 0 34.59 c 0,1.902 1.13,2.851 3.38,2.851 v 0 c 2.29,0 3.44,-0.949 3.44,-2.851 z m -13.71,10.504 V 245.57 c 0,-2.3 -1.13,-3.449 -3.37,-3.449 v 0 c -2.3,0 -3.45,1.149 -3.45,3.449 v 0 27.688 c 0,2.301 1.15,3.453 3.45,3.453 v 0 c 2.24,0 3.37,-1.152 3.37,-3.453 z m 0,-39.844 v -9.754 c 0,-2.25 -1.13,-3.375 -3.37,-3.375 v 0 c -2.3,0 -3.45,1.125 -3.45,3.375 v 0 9.754 c 0,1.754 1.15,2.629 3.45,2.629 v 0 c 2.24,0 3.37,-0.875 3.37,-2.629 z m 169.12,142.715 c -1.19,0.551 -22.7,0.898 -64.51,1.051 v 0 c -27.58,0 -49.61,-9.407 -66.09,-28.215 v 0 c 0,0.203 -0.28,0.027 -0.83,-0.524 v 0 c 0.35,0.2 0.18,-0.05 -0.52,-0.75 v 0 c 0,0 -0.08,-0.101 -0.23,-0.3 v 0 c -0.2,-0.149 -0.37,-0.227 -0.52,-0.227 v 0 c 0,-0.199 -0.1,-0.375 -0.3,-0.523 v 0 c -0.15,0 -0.23,-0.102 -0.23,-0.301 v 0 c -0.55,-0.551 -0.82,-0.727 -0.82,-0.524 v 0 c -0.35,-0.55 -0.53,-0.828 -0.53,-0.828 v 0 l -0.82,-0.75 c -18.08,-18.105 -27.2,-27.16 -27.35,-27.16 v 0 c 0,-0.199 -0.1,-0.375 -0.3,-0.527 v 0 c 0,0 -0.07,-0.098 -0.23,-0.297 v 0 c -0.2,-0.152 -0.3,-0.227 -0.3,-0.227 v 0 c -16.83,-18.808 -25.25,-44.043 -25.25,-75.707 v 0 -5.855 c 0,-37.617 11.76,-65.828 35.3,-84.637 v 0 c -0.2,0 -0.31,-0.098 -0.31,-0.301 v 0 0 0 c -0.14,-0.148 -0.39,-0.398 -0.75,-0.75 v 0 c -0.19,-0.199 -0.37,-0.375 -0.52,-0.523 v 0 c -0.2,-0.199 -8.99,-9.004 -26.37,-26.414 v 0 l -0.75,-0.75 c 0,0 -0.11,-0.098 -0.3,-0.301 v 0 c -0.15,-0.148 -0.23,-0.223 -0.23,-0.223 v 0 l -0.82,-0.824 c -3.5,-3.351 -5.25,-7.406 -5.25,-12.156 v 0 -16.8829 c 0,-24.9609 7.82,-45.4453 23.46,-61.4531 v 0 c 15.58,-16.0078 36.91,-25.41016 63.99,-28.21094 v 0 c 1.95,-0.699216 3.87,-1.0507788 5.77,-1.0507788 v 0 h 58.75 c 27.77,0 49.83,9.4023488 66.16,28.2109188 v 0 c 0.85,0.9024 1.1,1.1758 0.75,0.8281 v 0 c 0,0 0.1,0.0743 0.3,0.2227 v 0 c 0.15,0.1992 0.23,0.3008 0.23,0.3008 v 0 c -0.35,-0.5508 2.47,2.1992 8.46,8.2539 5.95,6.1016 9.02,9.2305 9.22,9.3789 v 0 c 0.15,0 0.23,0.1016 0.23,0.3008 v 0 c 0,0 0.09,0.0742 0.3,0.2226 v 0 c 0.14,0.2032 0.22,0.3008 0.22,0.3008 v 0 c 0.2,0.1524 0.37,0.3281 0.52,0.5274 v 0 c 0,0 0.1,0.0742 0.3,0.2226 v 0 0 c 25.13,18.3086 37.69,47.3477 37.69,87.1132 v 0 9.754 c 0,6.656 -0.52,13.758 -1.57,21.313 v 0 c 0.15,-0.704 0.15,-0.602 0,0.3 v 0 c -4.05,26.559 -14.69,47.219 -31.92,61.977 v 0 c 0,0 0.17,0.176 0.53,0.523 v 0 c 0.34,0.352 0.62,0.625 0.82,0.825 v 0 c 15.64,15.66 23.53,23.562 23.68,23.71 v 0 c 5.64,3.153 8.46,7.907 8.46,14.258 v 0 17.934 c 0,24.961 -7.81,45.445 -23.45,61.449 v 0 c -15.64,16.008 -36.99,25.414 -64.07,28.215 z M 1225.63,55.6641 h 104.6 c 2.8,0 4.2,1.3984 4.2,4.1992 v 0 c 0,2.8008 -1.4,4.2031 -4.2,4.2031 v 0 h -104.6 c -2.8,0 -4.2,-1.4023 -4.2,-4.2031 v 0 c 0,-2.8008 1.4,-4.1992 4.2,-4.1992 z m -29.53,22.1328 h 154.36 c 2.85,0 4.27,1.4023 4.27,4.2031 v 0 c 0,2.8516 -1.42,4.2773 -4.27,4.2773 v 0 H 1196.1 c -2.8,0 -4.19,-1.4257 -4.19,-4.2773 v 0 c 0,-2.8008 1.39,-4.2031 4.19,-4.2031 z m -15.51,21.9101 h 37.92 c 2.99,0 4.49,1.398 4.49,4.203 v 0 c 0,2.801 -1.5,4.199 -4.49,4.199 v 0 h -37.92 c -2.8,0 -4.2,-1.398 -4.2,-4.199 v 0 c 0,-2.805 1.4,-4.203 4.2,-4.203 z m 149.64,0 h 36.57 c 2.85,0 4.27,1.398 4.27,4.203 v 0 c 0,2.801 -1.42,4.199 -4.27,4.199 v 0 h -36.57 c -2.84,0 -4.27,-1.398 -4.27,-4.199 v 0 c 0,-2.805 1.43,-4.203 4.27,-4.203 z m 5.02,22.133 h 32.07 c 2.85,0 4.28,1.402 4.28,4.203 v 0 c 0,2.852 -1.43,4.277 -4.28,4.277 v 0 h -32.07 c -2.84,0 -4.27,-1.425 -4.27,-4.277 v 0 c 0,-2.801 1.43,-4.203 4.27,-4.203 z m -157.28,0 h 32.15 c 2.79,0 4.19,1.402 4.19,4.203 v 0 c 0,2.852 -1.4,4.277 -4.19,4.277 v 0 h -32.15 c -3,0 -4.5,-1.425 -4.5,-4.277 v 0 c 0,-2.801 1.5,-4.203 4.5,-4.203 z m 157.28,21.91 h 32.38 c 2.79,0 4.19,1.402 4.19,4.203 v 0 c 0,2.852 -1.4,4.277 -4.19,4.277 v 0 h -32.38 c -2.84,0 -4.27,-1.425 -4.27,-4.277 v 0 c 0,-2.801 1.43,-4.203 4.27,-4.203 z m 0,21.91 h 32.38 c 2.79,0 4.19,1.5 4.19,4.504 v 0 c 0,2.801 -1.4,4.199 -4.19,4.199 v 0 h -32.38 c -2.84,0 -4.27,-1.398 -4.27,-4.199 v 0 c 0,-3.004 1.43,-4.504 4.27,-4.504 z m -118.62,22.137 h 140.73 c 2.8,0 4.19,1.398 4.19,4.199 v 0 c 0,2.852 -1.39,4.277 -4.19,4.277 v 0 h -140.73 c -2.79,0 -4.19,-1.425 -4.19,-4.277 v 0 c 0,-2.801 1.4,-4.199 4.19,-4.199 z m -21.8,21.91 h 144.62 c 2.8,0 4.19,1.5 4.19,4.5 v 0 c 0,2.801 -1.39,4.203 -4.19,4.203 v 0 h -144.62 c -2.85,0 -4.27,-1.402 -4.27,-4.203 v 0 c 0,-3 1.42,-4.5 4.27,-4.5 z m -12.44,22.133 h 32.15 c 2.84,0 4.27,1.402 4.27,4.203 v 0 c 0,2.852 -1.43,4.277 -4.27,4.277 v 0 h -32.15 c -2.8,0 -4.19,-1.425 -4.19,-4.277 v 0 c 0,-2.801 1.39,-4.203 4.19,-4.203 z m -4.42,22.211 h 32.15 c 2.79,0 4.19,1.398 4.19,4.199 v 0 c 0,2.801 -1.4,4.203 -4.19,4.203 v 0 h -32.15 c -3,0 -4.5,-1.402 -4.5,-4.203 v 0 c 0,-2.801 1.5,-4.199 4.5,-4.199 z m 161.18,21.832 h 32.45 c 2.79,0 4.19,1.426 4.19,4.277 v 0 c 0,2.801 -1.4,4.203 -4.19,4.203 v 0 h -32.45 c -2.8,0 -4.2,-1.402 -4.2,-4.203 v 0 c 0,-2.851 1.4,-4.277 4.2,-4.277 z m -161.18,0 h 32.15 c 2.79,0 4.19,1.426 4.19,4.277 v 0 c 0,2.801 -1.4,4.203 -4.19,4.203 v 0 h -32.15 c -2.85,0 -4.27,-1.402 -4.27,-4.203 v 0 c 0,-2.851 1.42,-4.277 4.27,-4.277 z m 2.1,21.91 h 36.56 c 2.85,0 4.28,1.5 4.28,4.504 v 0 c 0,2.801 -1.43,4.199 -4.28,4.199 v 0 h -36.56 c -2.8,0 -4.2,-1.398 -4.2,-4.199 v 0 c 0,-3.004 1.4,-4.504 4.2,-4.504 z m 153.54,0 h 35.59 c 2.8,0 4.19,1.5 4.19,4.504 v 0 c 0,2.801 -1.39,4.199 -4.19,4.199 v 0 h -35.59 c -2.8,0 -4.2,-1.398 -4.2,-4.199 v 0 c 0,-3.004 1.4,-4.504 4.2,-4.504 z m -140.88,22.137 h 164.63 c 2.8,0 4.19,1.425 4.19,4.277 v 0 c 0,2.801 -1.39,4.199 -4.19,4.199 v 0 h -164.63 c -2.85,0 -4.27,-1.398 -4.27,-4.199 v 0 c 0,-2.852 1.42,-4.277 4.27,-4.277 z m 138.78,21.91 h -116.97 c -2.8,0 -4.2,1.5 -4.2,4.5 v 0 c 0,2.801 1.4,4.203 4.2,4.203 v 0 h 116.97 c 2.85,0 4.27,-1.402 4.27,-4.203 v 0 c 0,-3 -1.42,-4.5 -4.27,-4.5 z m 387.03,16.879 c 0,-0.149 0,-0.324 0,-0.524 v 0 c -0.2,-0.148 -0.31,-0.226 -0.31,-0.226 v 0 l -81.89,-206.563 c -0.55,-1.601 -0.83,-3.179 -0.83,-4.73 v 0 -96.3401 c 0,-2.8007 -1.4,-4.2031 -4.2,-4.2031 v 0 h -51.63 c -2.79,0 -4.19,1.4024 -4.19,4.2031 v 0 98.1411 c 0,1.601 -0.28,3.203 -0.83,4.804 v 0 l -82.42,205.438 c -0.55,1.402 -0.38,2.726 0.52,3.98 v 0 c 0.85,1.399 2,2.098 3.45,2.098 v 0 h 51.33 c 2.1,0 3.5,-0.973 4.19,-2.926 v 0 l 41.67,-108.648 c 2.1,-5.45 6.04,-8.176 11.84,-8.176 v 0 c 5.99,0 10.04,2.726 12.14,8.176 v 0 l 41.89,108.648 c 0.69,1.953 1.99,2.926 3.89,2.926 v 0 h 51.7 c 2.8,0 4.2,-1.5 4.2,-4.5 v 0 c 0,-0.5 -0.17,-1.027 -0.52,-1.578 z m -157.06,-245.582 -0.23,-9.977 c 0,-2.305 -1.15,-3.453 -3.45,-3.453 v 0 0 c -2.25,0 -3.37,1.148 -3.37,3.453 v 0 l 0.23,10.278 c 0,2.453 1.14,3.578 3.45,3.375 v 0 c 2.24,-0.149 3.37,-1.375 3.37,-3.676 z m -0.53,-20.8597 V 56.9375 c 0,-2.25 -1.12,-3.375 -3.37,-3.375 v 0 c -2.3,0 -3.45,1.125 -3.45,3.375 v 0 35.3398 c 0,1.9532 1.15,2.9258 3.45,2.9258 v 0 c 2.25,0 3.37,-0.9726 3.37,-2.9258 z M 1547.02,103.16 V 74.8711 c 0,-2.25 -1.15,-3.375 -3.45,-3.375 v 0 c -2.25,0 -3.37,1.125 -3.37,3.375 v 0 28.2889 c 0,2.25 1.12,3.375 3.37,3.375 v 0 c 2.3,0 3.45,-1.125 3.45,-3.375 z m 0,-40.6678 v -9.9805 c 0,-2.3008 -1.15,-3.4531 -3.45,-3.4531 v 0 c -2.25,0 -3.37,1.1523 -3.37,3.4531 v 0 9.9805 c 0,1.75 1.12,2.625 3.37,2.625 v 0 c 2.3,0 3.45,-0.875 3.45,-2.625 z m -9.75,130.0308 c -0.35,-0.152 -0.8,-0.226 -1.34,-0.226 v 0 c -1.55,0 -2.6,0.699 -3.15,2.101 v 0 l -23.46,57.25 c -0.85,2.102 -0.22,3.602 1.88,4.504 v 0 c 2.09,0.848 3.59,0.149 4.49,-2.101 v 0 l 23.45,-57.028 c 0.86,-2.101 0.23,-3.601 -1.87,-4.5 z m -12.66,-17.632 c -0.35,-0.2 -0.77,-0.301 -1.27,-0.301 v 0 c -1.6,0 -2.68,0.699 -3.23,2.101 v 0 l -58.67,143.012 c -0.75,2.102 -0.05,3.602 2.1,4.504 v 0 c 2.1,0.848 3.57,0.223 4.42,-1.879 v 0 l 58.52,-142.937 c 0.85,-2.301 0.23,-3.801 -1.87,-4.5 z m -32.9,129.281 c 1.9,0.851 3.3,0.226 4.2,-1.875 v 0 l 10.57,-25.363 c 0.84,-2.102 0.22,-3.575 -1.88,-4.426 v 0 c -0.5,-0.199 -0.95,-0.301 -1.35,-0.301 v 0 c -1.55,0 -2.59,0.699 -3.14,2.102 v 0 l -10.49,25.359 c -0.91,2.102 -0.21,3.602 2.09,4.504 z m 240.24,57.476 c 0,4.75 -1.67,8.801 -5.02,12.153 v 0 c -3.35,3.304 -7.37,4.953 -12.07,4.953 v 0 h -51.7 c -5.45,0 -9.99,-2.352 -13.64,-7.051 v 0 c -0.2,0 -5.69,-5.453 -16.48,-16.359 -10.79,-10.906 -16.34,-16.508 -16.64,-16.809 -0.25,-0.25 -0.27,-0.273 -0.07,-0.074 v 0 c -1.6,-1.602 -2.75,-3.277 -3.45,-5.027 v 0 l -17.91,-47.27 -31.32,81.563 c -2.85,7.351 -8.22,11.027 -16.11,11.027 v 0 h -51.33 c -4.6,0 -8.57,-1.649 -11.91,-4.953 v 0 c 0.54,0.351 0.37,0.176 -0.53,-0.524 v 0 c 0.35,0.352 0.45,0.375 0.3,0.075 -0.2,-0.25 -6.09,-6.079 -17.68,-17.481 -11.59,-11.457 -17.81,-17.808 -18.66,-19.058 v 0 c -3.35,-5.106 -3.87,-10.458 -1.57,-16.059 v 0 l 82.12,-205.516 V 17.1719 c 0,-4.7539 1.67,-8.80471 5.02,-12.15627 v 0 c 3.35,-3.35157 7.4,-5.0273488 12.14,-5.0273488 v 0 h 51.4 c 4.9,0 9.02,1.8515588 12.37,5.5507788 v 0 l 29.75,29.56254 0.52,0.5273 c 6,3.3008 8.99,8.2031 8.99,14.707 v 0 96.3401 l 81.6,206.492 c 1.25,2.301 1.88,4.676 1.88,7.129 v 0 c 0,0.199 -0.07,0.301 -0.23,0.301 v 0 c 0,0.148 0,0.324 0,0.523 v 0 c 0,0 0,0.074 0,0.227 v 0 c 0.16,0 0.23,0.097 0.23,0.3 z M 1587.85,54.0859 h 33.42 c 2.85,0 4.27,1.4024 4.27,4.2032 v 0 c 0,3 -1.42,4.5 -4.27,4.5 v 0 h -33.42 c -2.99,0 -4.49,-1.5 -4.49,-4.5 v 0 c 0,-2.8008 1.5,-4.2032 4.49,-4.2032 z m 0,22.4375 h 33.42 c 2.85,0 4.27,1.4727 4.27,4.4258 v 0 c 0,2.8516 -1.42,4.2774 -4.27,4.2774 v 0 h -33.42 c -2.99,0 -4.49,-1.4258 -4.49,-4.2774 v 0 c 0,-2.9531 1.5,-4.4258 4.49,-4.4258 z m 0,22.6563 h 33.42 c 2.85,0 4.27,1.4023 4.27,4.2033 v 0 c 0,2.801 -1.42,4.203 -4.27,4.203 v 0 h -33.42 c -2.99,0 -4.49,-1.402 -4.49,-4.203 v 0 c 0,-2.801 1.5,-4.2033 4.49,-4.2033 z m 0,22.4373 h 33.42 c 2.85,0 4.27,1.399 4.27,4.199 v 0 c 0,3.004 -1.42,4.504 -4.27,4.504 v 0 h -33.42 c -2.99,0 -4.49,-1.5 -4.49,-4.504 v 0 c 0,-2.8 1.5,-4.199 4.49,-4.199 z m 0,22.434 h 33.42 c 2.85,0 4.27,1.402 4.27,4.203 v 0 c 0,3 -1.42,4.5 -4.27,4.5 v 0 h -33.42 c -2.99,0 -4.49,-1.5 -4.49,-4.5 v 0 c 0,-2.801 1.5,-4.203 4.49,-4.203 z m -3.14,22.359 h 39.79 c 2.79,0 4.19,1.5 4.19,4.504 v 0 c 0,2.801 -1.4,4.199 -4.19,4.199 v 0 h -39.79 c -2.8,0 -4.2,-1.398 -4.2,-4.199 v 0 c 0,-3.004 1.4,-4.504 4.2,-4.504 z m -11.09,22.735 h 61.89 c 2.85,0 4.27,1.402 4.27,4.203 v 0 c 0,2.8 -1.42,4.203 -4.27,4.203 v 0 h -61.89 c -3,0 -4.5,-1.403 -4.5,-4.203 v 0 c 0,-2.801 1.5,-4.203 4.5,-4.203 z m -11.84,22.437 h 85.35 c 2.99,0 4.49,1.398 4.49,4.199 v 0 c 0,3.004 -1.5,4.504 -4.49,4.504 v 0 h -85.35 c -2.8,0 -4.2,-1.5 -4.2,-4.504 v 0 c 0,-2.801 1.4,-4.199 4.2,-4.199 z m 62.72,22.66 h 33.19 c 2.95,0 4.42,1.5 4.42,4.5 v 0 c 0,2.801 -1.47,4.203 -4.42,4.203 v 0 h -33.19 c -3,0 -4.5,-1.402 -4.5,-4.203 v 0 c 0,-3 1.5,-4.5 4.5,-4.5 z m 11.01,22.133 h 31.1 c 2.8,0 4.19,1.5 4.19,4.504 v 0 c 0,2.801 -1.39,4.199 -4.19,4.199 v 0 h -31.1 c -2.95,0 -4.42,-1.398 -4.42,-4.199 v 0 c 0,-3.004 1.47,-4.504 4.42,-4.504 z m 8.17,22.137 h 30.57 c 3,0 4.5,1.426 4.5,4.277 v 0 c 0,3 -1.5,4.5 -4.5,4.5 v 0 h -30.57 c -2.95,0 -4.42,-1.5 -4.42,-4.5 v 0 c 0,-2.851 1.47,-4.277 4.42,-4.277 z m 6.59,22.957 h 32.67 c 2.8,0 4.2,1.426 4.2,4.277 v 0 c 0,2.953 -1.4,4.43 -4.2,4.43 v 0 h -32.67 c -2.8,0 -4.2,-1.477 -4.2,-4.43 v 0 c 0,-2.851 1.4,-4.277 4.2,-4.277 z m 8.69,22.437 h 33.2 c 2.8,0 4.2,1.5 4.2,4.5 v 0 c 0,2.801 -1.4,4.203 -4.2,4.203 v 0 h -33.2 c -2.79,0 -4.19,-1.402 -4.19,-4.203 v 0 c 0,-3 1.4,-4.5 4.19,-4.5 z m 9.52,22.434 h 33.2 c 2.79,0 4.19,1.5 4.19,4.504 v 0 c 0,2.801 -1.4,4.199 -4.19,4.199 v 0 h -33.2 c -3,0 -4.5,-1.398 -4.5,-4.199 v 0 c 0,-3.004 1.5,-4.504 4.5,-4.504 z M 1552.79,234.242 h 35.06 c 2.8,0 4.2,1.5 4.2,4.5 v 0 c 0,2.801 -1.4,4.203 -4.2,4.203 v 0 h -35.06 c -2.8,0 -4.2,-1.402 -4.2,-4.203 v 0 c 0,-3 1.4,-4.5 4.2,-4.5 z m -9.22,22.133 h 32.67 c 2.85,0 4.27,1.5 4.27,4.504 v 0 c 0,2.801 -1.42,4.199 -4.27,4.199 v 0 h -32.67 c -2.8,0 -4.2,-1.398 -4.2,-4.199 v 0 c 0,-3.004 1.4,-4.504 4.2,-4.504 z m -8.17,22.137 h 32.15 c 2.99,0 4.49,1.426 4.49,4.277 v 0 c 0,3 -1.5,4.5 -4.49,4.5 v 0 h -32.15 c -2.8,0 -4.2,-1.5 -4.2,-4.5 v 0 c 0,-2.851 1.4,-4.277 4.2,-4.277 z m -8.92,22.957 h 34.25 c 2.79,0 4.19,1.426 4.19,4.277 v 0 c 0,2.953 -1.4,4.43 -4.19,4.43 v 0 h -34.25 c -2.8,0 -4.19,-1.477 -4.19,-4.43 v 0 c 0,-2.851 1.39,-4.277 4.19,-4.277 z m -9.52,22.437 h 34.55 c 3,0 4.5,1.5 4.5,4.5 v 0 c 0,2.801 -1.5,4.203 -4.5,4.203 v 0 h -34.55 c -2.94,0 -4.41,-1.402 -4.41,-4.203 v 0 c 0,-3 1.47,-4.5 4.41,-4.5 z m 24.81,22.434 h -34.54 c -3,0 -4.5,1.5 -4.5,4.504 v 0 c 0,2.801 1.5,4.199 4.5,4.199 v 0 h 34.54 c 3,0 4.5,-1.398 4.5,-4.199 v 0 c 0,-3.004 -1.5,-4.504 -4.5,-4.504 z m 512.62,11.332 -73.51,-308.0861 c -0.5,-2.3007 -1.9,-3.4531 -4.2,-3.4531 v 0 h -52.45 -3.9 c -2.3,0 -3.72,1.0508 -4.27,3.1524 v 0 l -84,309.4338 c -0.35,1.402 -0.08,2.726 0.82,3.98 v 0 c 0.85,1.047 1.98,1.574 3.37,1.574 v 0 h 52.98 c 2.1,0 3.43,-1.05 3.97,-3.152 v 0 l 40.32,-148.789 c 1.75,-6.305 5.94,-9.453 12.59,-9.453 v 0 0 c 6.69,0.148 10.81,3.476 12.36,9.976 v 0 l 35.37,147.965 c 0.5,2.301 1.9,3.453 4.2,3.453 v 0 h 52.37 c 2.85,0 4.27,-1.402 4.27,-4.203 v 0 c 0,-0.55 -0.09,-1.351 -0.29,-2.398 z M 1891.33,76.5234 c -0.35,-0.2031 -0.7,-0.3007 -1.05,-0.3007 v 0 c -1.74,0 -2.8,0.875 -3.14,2.625 v 0 l -46.09,163.2733 c -0.55,2.149 0.23,3.574 2.33,4.274 v 0 c 2.29,0.5 3.69,-0.297 4.19,-2.399 v 0 l 46.16,-163.2733 c 0.5,-2.3008 -0.3,-3.6993 -2.4,-4.1993 z m -11.84,-27.2382 c -0.35,0 -0.7,0 -1.05,0 v 0 c -1.74,0 -2.8,0.8007 -3.14,2.4023 v 0 l -6.9,24.5352 c -0.5,2.1015 0.3,3.5 2.4,4.1992 v 0 c 2.25,0.5508 3.65,-0.2227 4.2,-2.3242 v 0 l 6.82,-24.5352 c 0.54,-2.1523 -0.23,-3.5781 -2.33,-4.2773 z m -13.71,45.6953 c -1.75,0 -2.8,0.875 -3.15,2.625 v 0 l -60.09,218.1215 c -0.5,2.3 0.3,3.703 2.39,4.203 v 0 c 2.3,0.55 3.7,-0.227 4.2,-2.328 v 0 l 60.1,-218.1957 c 0.5,-2.25 -0.3,-3.6524 -2.4,-4.2032 v 0 c -0.35,-0.1484 -0.7,-0.2226 -1.05,-0.2226 z M 1830.19,296.52 c 2.29,0.699 3.72,-0.102 4.27,-2.403 v 0 l 7.11,-26.41 c 0.5,-2.254 -0.39,-3.652 -2.69,-4.203 v 0 c -0.15,-0.149 -0.4,-0.227 -0.75,-0.227 v 0 c -1.75,0 -2.8,0.875 -3.15,2.629 v 0 l -7.12,26.336 c -0.55,2.301 0.23,3.727 2.33,4.278 z m 237.38,64.601 c 0,4.754 -1.67,8.805 -5.02,12.156 v 0 c -3.34,3.301 -7.39,4.953 -12.14,4.953 v 0 h -52.37 c -4.25,0 -8.02,-1.402 -11.32,-4.203 v 0 c 0,-0.148 -0.1,-0.324 -0.3,-0.523 v 0 c -0.15,-0.152 -0.22,-0.227 -0.22,-0.227 v 0 c 0.15,0.149 -0.13,-0.023 -0.83,-0.527 v 0 c 0.2,0 -9.89,-10.203 -30.27,-30.613 v 0 c 0,0 -0.1,-0.098 -0.3,-0.297 v 0 c -0.15,-0.152 -0.23,-0.227 -0.23,-0.227 v 0 c 0.16,0.149 -0.12,-0.125 -0.82,-0.824 v 0 c -0.15,0 -0.22,-0.078 -0.22,-0.226 v 0 c -0.21,-0.2 -0.38,-0.301 -0.53,-0.301 v 0 c -3.2,-2.449 -5.22,-5.703 -6.07,-9.754 v 0 l -14.76,-62.278 -26.6,97.395 c -2.3,8.402 -7.75,12.605 -16.34,12.605 v 0 h -52.98 c -5.59,0 -10.16,-2.277 -13.71,-6.828 v 0 c 0.2,0.2 0.2,0.2 0,0 v 0 l -33.42,-33.464 c -0.2,0 -0.3,-0.102 -0.3,-0.301 v 0 c -0.15,-0.199 -0.15,-0.199 0,0 v 0 c -0.15,-0.199 -0.22,-0.301 -0.22,-0.301 v 0 c -0.2,-0.148 -0.3,-0.227 -0.3,-0.227 v 0 c -3.5,-4.55 -4.55,-9.55 -3.15,-15.004 v 0 l 84.08,-309.437 c 2.45,-8.45316 7.97,-12.6797188 16.56,-12.6797188 v 0 h 4.19 52.46 c 4.19,0 7.96,1.3984388 11.31,4.2031288 v 0 c 0,0.19922 -0.05,0.29687 -0.15,0.29687 -0.05,0 10.19,10.20702 30.72,30.61332 v 0 c 0.2,0.1523 0.3,0.2265 0.3,0.2265 v 0 l 0.23,0.3008 c 4.54,2.4492 7.44,6.0508 8.69,10.8047 v 0 l 73.21,308.3864 c 0.55,1.75 0.82,3.5 0.82,5.25 v 0 c 0,0 0,0.075 0,0.227 v 0 0 0 c 0,0.699 0,0.976 0,0.824 z m -61.89,-16.355 h 32.67 c 2.95,0 4.42,1.398 4.42,4.199 v 0 c 0,2.805 -1.47,4.203 -4.42,4.203 v 0 h -32.67 c -2.8,0 -4.2,-1.398 -4.2,-4.203 v 0 c 0,-2.801 1.4,-4.199 4.2,-4.199 z m -4.72,-21.911 h 32.59 c 2.85,0 4.27,1.399 4.27,4.204 v 0 c 0,2.847 -1.42,4.273 -4.27,4.273 v 0 h -32.59 c -2.85,0 -4.27,-1.426 -4.27,-4.273 v 0 c 0,-2.805 1.42,-4.204 4.27,-4.204 z m -5.85,-22.136 h 33.2 c 2.8,0 4.19,1.402 4.19,4.203 v 0 c 0,2.801 -1.39,4.203 -4.19,4.203 v 0 h -33.2 c -2.79,0 -4.19,-1.402 -4.19,-4.203 v 0 c 0,-2.801 1.4,-4.203 4.19,-4.203 z m -6.29,-21.91 h 33.2 c 2.79,0 4.19,1.402 4.19,4.203 v 0 c 0,2.851 -1.4,4.277 -4.19,4.277 v 0 h -33.2 c -2.8,0 -4.2,-1.426 -4.2,-4.277 v 0 c 0,-2.801 1.4,-4.203 4.2,-4.203 z m -4.72,-21.907 h 33.12 c 2.85,0 4.27,1.399 4.27,4.2 v 0 c 0,2.851 -1.42,4.277 -4.27,4.277 v 0 h -33.12 c -2.85,0 -4.27,-1.426 -4.27,-4.277 v 0 c 0,-2.801 1.42,-4.2 4.27,-4.2 z m -5.55,-22.136 h 33.2 c 2.8,0 4.2,1.402 4.2,4.203 v 0 c 0,2.801 -1.4,4.199 -4.2,4.199 v 0 h -33.2 c -3,0 -4.49,-1.398 -4.49,-4.199 v 0 c 0,-2.801 1.49,-4.203 4.49,-4.203 z m -6.59,-21.911 h 33.72 c 2.8,0 4.2,1.403 4.2,4.204 v 0 c 0,2.851 -1.4,4.277 -4.2,4.277 v 0 h -33.72 c -2.8,0 -4.2,-1.426 -4.2,-4.277 v 0 c 0,-2.801 1.4,-4.204 4.2,-4.204 z m -4.72,-22.132 h 33.94 c 2.8,0 4.2,1.5 4.2,4.5 v 0 c 0,2.8 -1.4,4.203 -4.2,4.203 v 0 h -33.94 c -2.85,0 -4.27,-1.403 -4.27,-4.203 v 0 c 0,-3 1.42,-4.5 4.27,-4.5 z m -75.91,0.222 h 34.55 c 2.79,0 4.19,1.426 4.19,4.278 v 0 c 0,2.8 -1.4,4.203 -4.19,4.203 v 0 h -34.55 c -2.79,0 -4.19,-1.403 -4.19,-4.203 v 0 c 0,-2.852 1.4,-4.278 4.19,-4.278 z m -7.12,21.91 h 32.67 c 2.8,0 4.2,1.403 4.2,4.204 v 0 c 0,2.851 -1.4,4.277 -4.2,4.277 v 0 h -32.67 c -2.8,0 -4.19,-1.426 -4.19,-4.277 v 0 c 0,-2.801 1.39,-4.204 4.19,-4.204 z m 41.36,-153.8159 h 45.34 c 2.8,0 4.2,1.4257 4.2,4.2773 v 0 c 0,2.8008 -1.4,4.2031 -4.2,4.2031 v 0 h -45.34 c -2.79,0 -4.19,-1.4023 -4.19,-4.2031 v 0 c 0,-2.8516 1.4,-4.2773 4.19,-4.2773 z m -5.24,21.9101 h 55.83 c 2.79,0 4.19,1.4258 4.19,4.2774 v 0 c 0,2.8007 -1.4,4.1992 -4.19,4.1992 v 0 h -55.83 c -2.85,0 -4.27,-1.3985 -4.27,-4.1992 v 0 c 0,-2.8516 1.42,-4.2774 4.27,-4.2774 z m -5.02,21.9098 h 63.99 c 2.8,0 4.2,1.399 4.2,4.2 v 0 c 0,2.851 -1.4,4.277 -4.2,4.277 v 0 h -63.99 c -2.8,0 -4.2,-1.426 -4.2,-4.277 v 0 c 0,-2.801 1.4,-4.2 4.2,-4.2 z m -6.07,22.133 h 74.86 c 2.79,0 4.19,1.426 4.19,4.278 v 0 c 0,2.8 -1.4,4.203 -4.19,4.203 v 0 h -74.86 c -3,0 -4.49,-1.403 -4.49,-4.203 v 0 c 0,-2.852 1.49,-4.278 4.49,-4.278 z m -4.49,21.91 h 83.77 c 2.85,0 4.27,1.403 4.27,4.203 v 0 c 0,2.852 -1.42,4.278 -4.27,4.278 v 0 h -83.77 c -2.8,0 -4.2,-1.426 -4.2,-4.278 v 0 c 0,-2.8 1.4,-4.203 4.2,-4.203 z m -7.35,21.911 h 97.71 c 2.8,0 4.2,1.398 4.2,4.203 v 0 c 0,2.8 -1.4,4.199 -4.2,4.199 v 0 h -97.71 c -2.8,0 -4.2,-1.399 -4.2,-4.199 v 0 c 0,-2.805 1.4,-4.203 4.2,-4.203 z m -18.96,65.953 h 33.2 c 2.8,0 4.2,1.402 4.2,4.203 v 0 c 0,2.801 -1.4,4.199 -4.2,4.199 v 0 h -33.2 c -2.85,0 -4.27,-1.398 -4.27,-4.199 v 0 c 0,-2.801 1.42,-4.203 4.27,-4.203 z m -6.37,22.136 h 33.2 c 2.85,0 4.27,1.399 4.27,4.2 v 0 c 0,2.851 -1.42,4.277 -4.27,4.277 v 0 h -33.2 c -2.79,0 -4.19,-1.426 -4.19,-4.277 v 0 c 0,-2.801 1.4,-4.2 4.19,-4.2 z m -4.72,21.907 h 33.2 c 2.79,0 4.2,1.402 4.2,4.203 v 0 c 0,2.851 -1.41,4.277 -4.2,4.277 v 0 h -33.2 c -2.8,0 -4.19,-1.426 -4.19,-4.277 v 0 c 0,-2.801 1.39,-4.203 4.19,-4.203 z m -5.54,21.91 H 1895 c 2.8,0 4.2,1.402 4.2,4.203 v 0 c 0,2.801 -1.4,4.203 -4.2,4.203 v 0 h -33.19 c -2.8,0 -4.2,-1.402 -4.2,-4.203 v 0 c 0,-2.801 1.4,-4.203 4.2,-4.203 z m -6.6,22.136 h 33.72 c 2.85,0 4.27,1.399 4.27,4.204 v 0 c 0,2.847 -1.42,4.273 -4.27,4.273 v 0 h -33.72 c -2.79,0 -4.19,-1.426 -4.19,-4.273 v 0 c 0,-2.805 1.4,-4.204 4.19,-4.204 z m 29.3,21.911 h -34.02 c -2.79,0 -4.19,1.398 -4.19,4.199 v 0 c 0,2.805 1.4,4.203 4.19,4.203 v 0 h 34.02 c 2.8,0 4.2,-1.398 4.2,-4.203 v 0 c 0,-2.801 -1.4,-4.199 -4.2,-4.199 z m 340.05,15.531 V 50.6367 c 0,-3.0039 -1.4,-4.5039 -4.2,-4.5039 v 0 h -51.63 c -2.79,0 -4.19,1.5 -4.19,4.5039 v 0 309.6603 c 0,2.851 1.4,4.277 4.19,4.277 v 0 h 51.63 c 2.8,0 4.2,-1.426 4.2,-4.277 z m -76.13,-260.59 c -2.25,0 -3.38,1.148 -3.38,3.453 v 0 l -0.3,34.512 c 0,1.051 0.36,1.926 1.05,2.629 v 0 c 0.9,0.898 1.7,1.25 2.4,1.051 v 0 c 2.25,0 3.37,-1.129 3.37,-3.379 v 0 l 0.31,-34.813 c 0,-0.902 -0.45,-1.801 -1.36,-2.703 v 0 c -0.7,-0.6992 -1.39,-0.9492 -2.09,-0.75 z m -3.9,57.477 0.52,134.308 c 0,2.25 1.13,3.375 3.38,3.375 v 0 0 c 2.29,0 3.45,-1.125 3.45,-3.375 v 0 l -0.53,-134.308 c 0,-2.254 -1.15,-3.379 -3.45,-3.379 v 0 c -2.25,0 -3.37,1.125 -3.37,3.379 z m -10.34,-87.266 c -2.25,0 -3.47,1.125 -3.67,3.3789 v 0 l -0.23,198.9101 c 0,2.301 1.13,3.453 3.37,3.453 v 0 c 2.3,0 3.45,-1.152 3.45,-3.453 v 0 l 0.53,-198.9101 c 0,-2.2539 -1.15,-3.3789 -3.45,-3.3789 z m -3.9,219.699 v 20.031 c 0,2.301 1.13,3.454 3.37,3.454 v 0 c 2.3,0 3.45,-1.153 3.45,-3.454 v 0 -20.031 c 0,-2.304 -1.15,-3.453 -3.45,-3.453 v 0 c -2.24,0 -3.37,1.149 -3.37,3.453 z m 90.07,88.914 h -51.63 c -4.89,0 -9.02,-1.754 -12.36,-5.254 v 0 c -22.33,-22.359 -33.57,-33.613 -33.72,-33.765 v 0 c -3.7,-3.551 -5.54,-7.703 -5.54,-12.453 v 0 -309.8871 c 0,-4.7539 1.67,-8.80471 5.02,-12.15627 v 0 c 3.29,-3.35157 7.32,-5.0273488 12.06,-5.0273488 v 0 h 51.63 c 4.95,0 9.09,1.8515588 12.44,5.5507788 v 0 l 30.27,30.31644 c 6.15,4.6015 9.14,9.5273 8.99,14.7812 v 0 310.7113 c 0,4.75 -1.67,8.804 -5.02,12.156 v 0 c -3.34,3.351 -7.39,5.027 -12.14,5.027 z M 2177.95,60.1641 h 33.19 c 2.65,0 3.98,1.4023 3.98,4.2031 v 0 c 0,2.8008 -1.33,4.1992 -3.98,4.1992 v 0 h -33.19 c -2.8,0 -4.2,-1.3984 -4.2,-4.1992 v 0 c 0,-2.8008 1.4,-4.2031 4.2,-4.2031 z m 0,21.8359 h 33.19 c 2.65,0 3.98,1.4258 3.98,4.2773 v 0 c 0,2.8008 -1.33,4.1993 -3.98,4.1993 v 0 h -33.19 c -2.8,0 -4.2,-1.3985 -4.2,-4.1993 v 0 c 0,-2.8515 1.4,-4.2773 4.2,-4.2773 z m 0,21.684 h 33.19 c 2.65,0 3.98,1.402 3.98,4.203 v 0 c 0,2.801 -1.33,4.199 -3.98,4.199 v 0 h -33.19 c -2.8,0 -4.2,-1.398 -4.2,-4.199 v 0 c 0,-2.801 1.4,-4.203 4.2,-4.203 z m 0.3,87.039 h 32.6 c 2.64,0 3.97,1.398 3.97,4.199 v 0 c 0,2.805 -1.33,4.203 -3.97,4.203 v 0 h -32.6 c -2.85,0 -4.27,-1.398 -4.27,-4.203 v 0 c 0,-2.801 1.42,-4.199 4.27,-4.199 z m 0,21.91 h 32.6 c 2.64,0 3.97,1.398 3.97,4.199 v 0 c 0,2.652 -1.33,3.977 -3.97,3.977 v 0 h -32.6 c -2.85,0 -4.27,-1.325 -4.27,-3.977 v 0 c 0,-2.801 1.42,-4.199 4.27,-4.199 z m -0.3,-87.113 h 33.19 c 2.65,0 3.98,1.425 3.98,4.277 v 0 c 0,2.801 -1.33,4.199 -3.98,4.199 v 0 h -33.19 c -2.8,0 -4.2,-1.398 -4.2,-4.199 v 0 c 0,-2.852 1.4,-4.277 4.2,-4.277 z m 0,21.683 h 33.19 c 2.65,0 3.98,1.399 3.98,4.203 v 0 c 0,2.801 -1.33,4.199 -3.98,4.199 v 0 h -33.19 c -2.8,0 -4.2,-1.398 -4.2,-4.199 v 0 c 0,-2.804 1.4,-4.203 4.2,-4.203 z m 0,21.91 h 33.19 c 2.65,0 3.98,1.399 3.98,4.2 v 0 c 0,2.601 -1.33,3.902 -3.98,3.902 v 0 h -33.19 c -2.8,0 -4.2,-1.301 -4.2,-3.902 v 0 c 0,-2.801 1.4,-4.2 4.2,-4.2 z m 0,65.129 h 33.19 c 2.65,0 3.98,1.399 3.98,4.199 v 0 c 0,2.801 -1.33,4.204 -3.98,4.204 v 0 h -33.19 c -2.8,0 -4.2,-1.403 -4.2,-4.204 v 0 c 0,-2.8 1.4,-4.199 4.2,-4.199 z m 0,21.91 h 32.9 c 2.84,0 4.27,1.399 4.27,4.2 v 0 c 0,2.652 -1.43,3.976 -4.27,3.976 v 0 h -32.9 c -2.8,0 -4.2,-1.324 -4.2,-3.976 v 0 c 0,-2.801 1.4,-4.2 4.2,-4.2 z m 0,21.61 h 33.19 c 2.65,0 3.98,1.398 3.98,4.199 v 0 c 0,2.801 -1.33,4.203 -3.98,4.203 v 0 h -33.19 c -2.8,0 -4.2,-1.402 -4.2,-4.203 v 0 c 0,-2.801 1.4,-4.199 4.2,-4.199 z m 0,21.906 h 33.19 c 2.65,0 3.98,1.301 3.98,3.902 v 0 c 0,2.852 -1.33,4.278 -3.98,4.278 v 0 h -33.19 c -2.8,0 -4.2,-1.426 -4.2,-4.278 v 0 c 0,-2.601 1.4,-3.902 4.2,-3.902 z m -0.3,21.609 h 33.72 c 2.65,0 3.97,1.403 3.97,4.203 v 0 c 0,2.852 -1.32,4.278 -3.97,4.278 v 0 h -33.72 c -2.8,0 -4.2,-1.426 -4.2,-4.278 v 0 c 0,-2.8 1.4,-4.203 4.2,-4.203 z m 33.72,21.614 h -33.72 c -2.8,0 -4.2,1.422 -4.2,4.273 v 0 c 0,2.805 1.4,4.203 4.2,4.203 v 0 h 33.72 c 2.65,0 3.97,-1.398 3.97,-4.203 v 0 c 0,-2.851 -1.32,-4.273 -3.97,-4.273 z m 348.59,16.355 v -51.398 c 0,-3 -1.5,-4.5 -4.5,-4.5 v 0 h -143.87 c -3.5,0 -6.47,-1.227 -8.91,-3.68 v 0 c -2.45,-2.449 -3.68,-5.449 -3.68,-9.004 v 0 -46.144 c 0,-3.5 1.23,-6.504 3.68,-9.004 v 0 c 2.44,-2.45 5.41,-3.676 8.91,-3.676 v 0 h 126.71 c 3,0 4.5,-1.5 4.5,-4.504 v 0 -51.395 c 0,-2.8 -1.5,-4.203 -4.5,-4.203 v 0 h -126.71 c -3.5,0 -6.47,-1.25 -8.91,-3.75 v 0 c -2.45,-2.601 -3.68,-5.679 -3.68,-9.23 v 0 -39.766 c 0,-3.554 1.23,-6.554 3.68,-9.008 v 0 c 2.44,-2.449 5.41,-3.675 8.91,-3.675 v 0 h 143.87 c 3,0 4.5,-1.5 4.5,-4.5 v 0 -51.4731 c 0,-2.8007 -1.5,-4.2031 -4.5,-4.2031 v 0 H 2343.1 c -2.8,0 -4.19,1.4024 -4.19,4.2031 v 0 308.9101 c 0,2.852 1.39,4.277 4.19,4.277 v 0 h 212.36 c 3,0 4.5,-1.425 4.5,-4.277 z M 2325.49,95.7305 V 67.8164 c 0,-2.3008 -1.15,-3.4492 -3.44,-3.4492 v 0 c -2.3,0 -3.45,1.1484 -3.45,3.4492 v 0 27.9141 c 0,1.75 1.15,2.625 3.45,2.625 v 0 c 2.29,0 3.44,-0.875 3.44,-2.625 z m -6.89,17.4065 -0.53,189.16 c 0,2.301 1.15,3.449 3.45,3.449 v 0 c 2.3,0 3.45,-1.148 3.45,-3.449 v 0 l 0.52,-189.16 c 0,-2.301 -1.15,-3.449 -3.44,-3.449 v 0 c -2.3,0 -3.45,1.148 -3.45,3.449 z m -11.01,179.629 v 0 c -2.3,0 -3.45,1.152 -3.45,3.453 v 0 l -0.3,20.332 c 0,2.254 1.15,3.379 3.45,3.379 v 0 0 c 2.29,0 3.44,-1.125 3.44,-3.379 v 0 l 0.23,-20.332 c 0,-2.301 -1.13,-3.453 -3.37,-3.453 z m 3.14,-12.606 V 129.27 c 0,-2.301 -1.15,-3.454 -3.44,-3.454 v 0 c -2.3,0 -3.45,1.153 -3.45,3.454 v 0 150.89 c 0,1.903 1.15,2.852 3.45,2.852 v 0 c 2.29,0 3.44,-0.949 3.44,-2.852 z m 0,-163.347 V 93.9297 c 0,-2.3008 -1.15,-3.4531 -3.44,-3.4531 v 0 c -2.3,0 -3.45,1.1523 -3.45,3.4531 v 0 22.8833 c 0,1.953 1.15,2.929 3.45,2.929 v 0 c 2.29,0 3.44,-0.976 3.44,-2.929 z M 2555.46,377.48 H 2343.1 c -4.74,0 -9.04,-2.027 -12.89,-6.078 v 0 l -32.89,-32.941 c -3.7,-3.551 -5.55,-7.703 -5.55,-12.453 v 0 -308.8361 c 0,-4.7539 1.68,-8.80471 5.02,-12.15627 v 0 c 3.3,-3.35157 7.32,-5.0273488 12.07,-5.0273488 v 0 h 212.36 c 4.89,0 9.01,1.8515588 12.36,5.5507788 v 0 c 20.19,20.05864 30.28,30.08984 30.28,30.08984 v 0 c 5.79,3.5 8.69,8.4024 8.69,14.707 v 0 52.5231 c 0,4.75 -1.65,8.801 -4.95,12.153 v 0 c -3.35,3.351 -7.39,5.027 -12.14,5.027 v 0 h -143.87 v 5.481 h 92.47 c 4.94,0 9.09,1.847 12.44,5.55 v 0 l 30.27,30.387 c 5.8,3.305 8.69,8.129 8.69,14.484 v 0 52.524 c 0,4.699 -1.67,8.726 -5.02,12.078 v 0 c -3.35,3.551 -7.39,5.328 -12.14,5.328 v 0 h -126.71 v 11.555 h 109.63 c 4.74,0 8.87,1.777 12.36,5.328 v 0 c 20.03,20.008 30.13,30.113 30.28,30.312 v 0 c 5.79,3.352 8.69,8.278 8.69,14.782 v 0 52.449 c 0,4.75 -1.65,8.805 -4.95,12.156 v 0 c -3.35,3.352 -7.39,5.027 -12.14,5.027 z M 2350.75,56.1875 h 198.12 c 2.79,0 4.2,1.4023 4.2,4.2031 v 0 c 0,3 -1.41,4.5 -4.2,4.5 v 0 h -198.12 c -2.8,0 -4.2,-1.5 -4.2,-4.5 v 0 c 0,-2.8008 1.4,-4.2031 4.2,-4.2031 z m 0,22.4336 h 198.12 c 2.79,0 4.2,1.4023 4.2,4.2031 v 0 c 0,2.8008 -1.41,4.2031 -4.2,4.2031 v 0 h -198.12 c -2.8,0 -4.2,-1.4023 -4.2,-4.2031 v 0 c 0,-2.8008 1.4,-4.2031 4.2,-4.2031 z m 0,22.1369 h 37.69 c 2.79,0 4.19,1.398 4.19,4.203 v 0 c 0,2.801 -1.4,4.199 -4.19,4.199 v 0 h -37.69 c -2.8,0 -4.2,-1.398 -4.2,-4.199 v 0 c 0,-2.805 1.4,-4.203 4.2,-4.203 z m 0,22.133 h 37.69 c 2.79,0 4.19,1.504 4.19,4.504 v 0 c 0,2.8 -1.4,4.203 -4.19,4.203 v 0 h -37.69 c -2.8,0 -4.2,-1.403 -4.2,-4.203 v 0 c 0,-3 1.4,-4.504 4.2,-4.504 z m 0,22.437 h 37.69 c 2.79,0 4.19,1.399 4.19,4.199 v 0 c 0,2.852 -1.4,4.278 -4.19,4.278 v 0 h -37.69 c -2.8,0 -4.2,-1.426 -4.2,-4.278 v 0 c 0,-2.8 1.4,-4.199 4.2,-4.199 z m 0,22.133 h 37.69 c 2.79,0 4.19,1.426 4.19,4.277 v 0 c 0,2.953 -1.4,4.426 -4.19,4.426 v 0 h -37.69 c -2.8,0 -4.2,-1.473 -4.2,-4.426 v 0 c 0,-2.851 1.4,-4.277 4.2,-4.277 z m 0,22.434 h 178.11 c 3,0 4.5,1.402 4.5,4.203 v 0 c 0,2.851 -1.5,4.277 -4.5,4.277 v 0 h -178.11 c -2.8,0 -4.2,-1.426 -4.2,-4.277 v 0 c 0,-2.801 1.4,-4.203 4.2,-4.203 z m 0,22.21 h 178.11 c 3,0 4.5,1.403 4.5,4.204 v 0 c 0,3 -1.5,4.5 -4.5,4.5 v 0 h -178.11 c -2.8,0 -4.2,-1.5 -4.2,-4.5 v 0 c 0,-2.801 1.4,-4.204 4.2,-4.204 z m 0,22.137 h 36.34 c 2.85,0 4.27,1.5 4.27,4.5 v 0 c 0,2.801 -1.42,4.203 -4.27,4.203 v 0 h -36.34 c -2.8,0 -4.2,-1.402 -4.2,-4.203 v 0 c 0,-3 1.4,-4.5 4.2,-4.5 z m 0,22.434 h 36.34 c 2.85,0 4.27,1.402 4.27,4.203 v 0 c 0,2.801 -1.42,4.199 -4.27,4.199 v 0 h -36.34 c -2.8,0 -4.2,-1.398 -4.2,-4.199 v 0 c 0,-2.801 1.4,-4.203 4.2,-4.203 z m 0,22.133 h 36.34 c 2.85,0 4.27,1.402 4.27,4.203 v 0 c 0,3.004 -1.42,4.504 -4.27,4.504 v 0 h -36.34 c -2.8,0 -4.2,-1.5 -4.2,-4.504 v 0 c 0,-2.801 1.4,-4.203 4.2,-4.203 z m 0,22.437 h 36.34 c 2.85,0 4.27,1.399 4.27,4.199 v 0 c 0,2.805 -1.42,4.203 -4.27,4.203 v 0 h -36.34 c -2.8,0 -4.2,-1.398 -4.2,-4.203 v 0 c 0,-2.8 1.4,-4.199 4.2,-4.199 z m 0,22.133 h 198.12 c 2.79,0 4.2,1.402 4.2,4.203 v 0 c 0,3 -1.41,4.5 -4.2,4.5 v 0 h -198.12 c -2.8,0 -4.2,-1.5 -4.2,-4.5 v 0 c 0,-2.801 1.4,-4.203 4.2,-4.203 z m 198.12,22.137 h -198.12 c -2.8,0 -4.2,1.5 -4.2,4.5 v 0 c 0,2.8 1.4,4.203 4.2,4.203 v 0 h 198.12 c 2.79,0 4.2,-1.403 4.2,-4.203 v 0 c 0,-3 -1.41,-4.5 -4.2,-4.5 z m 482.87,12.98 c 0,-0.351 -0.08,-0.625 -0.23,-0.824 v 0 L 2961.97,49.5859 c -0.54,-2.3007 -1.97,-3.4531 -4.27,-3.4531 v 0 h -56.35 c -2.44,0 -3.84,1.1524 -4.19,3.4531 v 0 l -29,126.5781 c -1.6,6.703 -5.82,10.055 -12.66,10.055 v 0 c -6.85,0 -10.97,-3.352 -12.37,-10.055 v 0 l -28.7,-126.5781 c -0.55,-2.3007 -1.95,-3.4531 -4.2,-3.4531 v 0 h -56.64 c -2.3,0 -3.63,1.1524 -3.98,3.4531 v 0 l -70.58,309.1331 c -0.35,1.402 -0.1,2.629 0.75,3.679 v 0 c 0.9,1.098 2.04,1.649 3.44,1.649 v 0 h 52.98 c 2.25,0 3.55,-1.074 3.9,-3.227 v 0 l 29.29,-128.156 c 1.56,-6.703 5.75,-10.055 12.59,-10.055 v 0 0 c 6.85,0 11.07,3.352 12.67,10.055 v 0 l 28.7,127.934 c 0.55,2.3 1.97,3.449 4.27,3.449 v 0 h 3.15 52.9 c 2.3,0 3.62,-1.074 3.97,-3.227 v 0 l 29.22,-128.156 c 1.6,-6.703 5.82,-10.055 12.67,-10.055 v 0 c 6.84,0 11.06,3.352 12.66,10.055 v 0 l 29,127.934 c 0.35,2.3 1.65,3.449 3.9,3.449 v 0 h 52.68 c 2.84,0 4.27,-1.426 4.27,-4.277 v 0 c 0,-0.5 -0.1,-0.922 -0.3,-1.274 z M 2720.09,89.9531 c -0.35,-0.1992 -0.6,-0.3008 -0.75,-0.3008 v 0 c -1.8,0 -2.95,0.9766 -3.45,2.9258 v 0 l -37.16,155.3949 c -0.5,2.101 0.37,3.402 2.62,3.902 v 0 c 2.3,0.699 3.72,-0.078 4.27,-2.328 v 0 l 36.87,-155.3907 c 0.5,-2.3047 -0.3,-3.7032 -2.4,-4.2032 z m -11.84,-25.3633 c -0.35,0 -0.62,0 -0.82,0 v 0 c -1.9,0 -3.02,0.875 -3.38,2.629 v 0 l -5.54,23.2578 c -0.35,2.1015 0.53,3.4257 2.62,3.9765 v 0 c 2.3,0.5 3.7,-0.2968 4.2,-2.3984 v 0 l 5.32,-23.1875 c 0.5,-2.3008 -0.3,-3.7266 -2.4,-4.2774 z m -11.09,43.5192 c -1.75,0 -2.8,0.903 -3.14,2.704 v 0 l -48.49,207.539 c -0.5,2.152 0.38,3.476 2.63,3.976 v 0 c 2.14,0.703 3.47,-0.098 3.97,-2.398 v 0 l 48.48,-207.844 c 0.55,-2.102 -0.33,-3.426 -2.63,-3.977 v 0 c -0.19,0 -0.47,0 -0.82,0 z m -26.3,191.559 c 2.25,0.504 3.65,-0.375 4.19,-2.625 v 0 l 5.55,-25.059 c 0.35,-2.304 -0.52,-3.629 -2.62,-3.98 v 0 c -0.35,-0.199 -0.62,-0.297 -0.83,-0.297 v 0 c -1.94,0 -3.1,0.898 -3.44,2.699 v 0 l -5.47,25.285 c -0.55,2.102 0.32,3.43 2.62,3.977 z m 374.07,61.152 c 0,4.754 -1.68,8.805 -5.02,12.157 v 0 c -3.35,3.351 -7.4,5.027 -12.14,5.027 v 0 h -52.68 c -4.05,0 -7.72,-1.399 -11.02,-4.203 v 0 c 0.15,0 -0.12,-0.274 -0.82,-0.824 v 0 c 0,0 -0.08,-0.075 -0.23,-0.227 v 0 l -32.14,-32.187 c 0.5,0.351 0.32,0.175 -0.53,-0.524 v 0 c -3.35,-2.652 -5.47,-5.902 -6.37,-9.758 v 0 l -7.86,-35.113 -15.82,69.629 c -0.89,3.851 -2.92,7.031 -6.07,9.531 v 0 c -3.14,2.449 -6.66,3.676 -10.56,3.676 v 0 h -56.05 c -4.24,0 -7.94,-1.399 -11.09,-4.203 v 0 c 0.15,0.152 -0.12,-0.125 -0.83,-0.824 v 0 c 0,0 -0.07,-0.075 -0.22,-0.227 v 0 c -21.08,-21.109 -31.62,-31.66 -31.62,-31.66 v 0 c -0.2,-0.203 -0.38,-0.379 -0.53,-0.527 v 0 c 0,0 -0.1,-0.102 -0.29,-0.301 v 0 c -0.16,-0.149 -0.23,-0.223 -0.23,-0.223 v 0 c -3.35,-2.652 -5.45,-5.902 -6.29,-9.758 v 0 l -7.95,-35.113 -15.81,69.629 c -0.85,3.851 -2.87,7.031 -6.07,9.531 v 0 c -3.15,2.449 -6.64,3.676 -10.49,3.676 v 0 h -52.98 c -5.44,0 -9.91,-2.102 -13.41,-6.301 v 0 c 0,0 0,-0.101 0,-0.301 v 0 0 0 c -0.2,-0.203 -0.37,-0.3 -0.52,-0.3 v 0 c 0,0 -0.1,-0.075 -0.31,-0.227 v 0 0 c 0,-0.199 0,-0.301 0,-0.301 v 0 c 0,0 -0.07,-0.074 -0.22,-0.222 v 0 c -0.2,0 -0.3,0 -0.3,0 v 0 c 0,-0.2 0,-0.301 0,-0.301 v 0 c 0,0 -0.07,0 -0.22,0 v 0 c -21.44,-21.41 -32.15,-32.113 -32.15,-32.113 v 0 -0.301 c -0.9,-0.903 -1.07,-1.074 -0.52,-0.528 v 0 c -3.55,-4.199 -4.7,-9.027 -3.45,-14.48 v 0 l 70.36,-309.211 c 1.05,-4.05081 3.05,-7.30081 6,-9.75394 v 0 c 3.19,-2.44922 6.81,-3.6757788 10.86,-3.6757788 v 0 h 4.2 52.37 c 4.25,0 7.95,1.4999988 11.09,4.4999988 v 0 c 0,-0.19922 0.28,-0.02344 0.83,0.52735 v 0 c -0.2,0 -0.17,0.07421 0.08,0.22265 0.29,0.20313 10.36,10.33202 30.19,30.39062 v 0 0 h 0.23 c 4.59,2.4492 7.52,6.1289 8.76,11.0313 v 0 l 7.57,34.289 15.59,-67.5312 c 0.85,-4.05081 2.77,-7.30081 5.77,-9.75394 v 0 c 3.19,-2.44922 6.79,-3.6757788 10.79,-3.6757788 v 0 h 4.27 52.38 c 4.24,0 7.94,1.4999988 11.09,4.4999988 v 0 c 0,-0.19922 10.09,9.90622 30.27,30.31642 v 0 c 0.2,0 0.38,0.0976 0.53,0.2969 v 0 c 0.2,0.1523 0.29,0.2265 0.29,0.2265 v 0 l 0.23,0.3008 c 4.59,2.4492 7.49,6.1289 8.69,11.0313 v 0 L 3044.1,354.82 c 0.55,1.551 0.83,3.2 0.83,4.95 v 0 c 0,0 -0.11,0.101 -0.3,0.3 v 0 c 0,0 0,0.075 0,0.227 v 0 c 0.19,0.699 0.3,0.875 0.3,0.523 z m -210.27,-14.781 h 42.41 c 2.85,0 4.28,1.5 4.28,4.504 v 0 c 0,2.852 -1.43,4.277 -4.28,4.277 v 0 h -42.41 c -2.79,0 -4.2,-1.425 -4.2,-4.277 v 0 c 0,-3.004 1.41,-4.504 4.2,-4.504 z m -6.82,-22.133 h 54.78 c 3,0 4.5,1.399 4.5,4.199 v 0 c 0,2.852 -1.5,4.278 -4.5,4.278 v 0 h -54.78 c -2.99,0 -4.49,-1.426 -4.49,-4.278 v 0 c 0,-2.8 1.5,-4.199 4.49,-4.199 z m -4.71,-22.437 h 62.64 c 3,0 4.49,1.504 4.49,4.504 v 0 c 0,2.8 -1.49,4.203 -4.49,4.203 v 0 h -62.64 c -3,0 -4.5,-1.403 -4.5,-4.203 v 0 c 0,-3 1.5,-4.504 4.5,-4.504 z m -3.15,-22.133 h 71.63 c 2.8,0 4.2,1.402 4.2,4.203 v 0 c 0,2.852 -1.4,4.277 -4.2,4.277 v 0 h -71.63 c -3,0 -4.5,-1.425 -4.5,-4.277 v 0 c 0,-2.801 1.5,-4.203 4.5,-4.203 z m -4.8,-22.434 h 81.68 c 3,0 4.49,1.5 4.49,4.5 v 0 c 0,2.801 -1.49,4.203 -4.49,4.203 v 0 h -81.68 c -2.8,0 -4.2,-1.402 -4.2,-4.203 v 0 c 0,-3 1.4,-4.5 4.2,-4.5 z m -3.67,-22.136 h 88.79 c 2.8,0 4.2,1.402 4.2,4.203 v 0 c 0,2.801 -1.4,4.199 -4.2,4.199 v 0 h -88.79 c -2.8,0 -4.2,-1.398 -4.2,-4.199 v 0 c 0,-2.801 1.4,-4.203 4.2,-4.203 z m -7.87,-22.434 h 106.11 c 2.99,0 4.49,1.5 4.49,4.5 v 0 c 0,2.801 -1.5,4.203 -4.49,4.203 v 0 h -106.11 c -3,0 -4.5,-1.402 -4.5,-4.203 v 0 c 0,-3 1.5,-4.5 4.5,-4.5 z m 66.62,-22.137 h 107.45 c 3,0 4.5,1.403 4.5,4.203 v 0 c 0,2.801 -1.5,4.204 -4.5,4.204 v 0 h -107.45 c -2.8,0 -4.2,-1.403 -4.2,-4.204 v 0 c 0,-2.8 1.4,-4.203 4.2,-4.203 z m 81.37,22.137 h 33.5 c 2.8,0 4.19,1.5 4.19,4.5 v 0 c 0,2.801 -1.39,4.203 -4.19,4.203 v 0 h -33.5 c -2.79,0 -4.19,-1.402 -4.19,-4.203 v 0 c 0,-3 1.4,-4.5 4.19,-4.5 z M 2907.65,56.4141 h 42.71 c 2.8,0 4.19,1.4257 4.19,4.2773 v 0 c 0,2.8008 -1.39,4.1992 -4.19,4.1992 v 0 h -42.71 c -2.95,0 -4.42,-1.3984 -4.42,-4.1992 v 0 c 0,-2.8516 1.47,-4.2773 4.42,-4.2773 z m -4.72,22.207 h 53.2 c 2.8,0 4.19,1.4766 4.19,4.4297 v 0 c 0,2.8515 -1.39,4.2773 -4.19,4.2773 v 0 h -53.2 c -2.8,0 -4.2,-1.4258 -4.2,-4.2773 v 0 c 0,-2.9531 1.4,-4.4297 4.2,-4.4297 z m -4.5,22.3589 h 62.2 c 2.79,0 4.19,1.426 4.19,4.278 v 0 c 0,2.801 -1.4,4.203 -4.19,4.203 v 0 h -62.2 c -2.8,0 -4.2,-1.402 -4.2,-4.203 v 0 c 0,-2.852 1.4,-4.278 4.2,-4.278 z m -5.02,22.211 h 72.23 c 2.8,0 4.2,1.5 4.2,4.504 v 0 c 0,2.801 -1.4,4.2 -4.2,4.2 v 0 h -72.23 c -2.8,0 -4.2,-1.399 -4.2,-4.2 v 0 c 0,-3.004 1.4,-4.504 4.2,-4.504 z m -4.95,22.434 h 82.43 c 2.8,0 4.2,1.402 4.2,4.203 v 0 c 0,2.801 -1.4,4.203 -4.2,4.203 v 0 h -82.43 c -2.99,0 -4.49,-1.402 -4.49,-4.203 v 0 c 0,-2.801 1.5,-4.203 4.49,-4.203 z m -4.79,22.137 h 90.37 c 3,0 4.5,1.5 4.5,4.5 v 0 c 0,2.804 -1.5,4.203 -4.5,4.203 v 0 h -90.37 c -2.95,0 -4.42,-1.399 -4.42,-4.203 v 0 c 0,-3 1.47,-4.5 4.42,-4.5 z m 73.51,67.004 h 33.72 c 2.8,0 4.19,1.402 4.19,4.203 v 0 c 0,3 -1.39,4.5 -4.19,4.5 v 0 h -33.72 c -2.8,0 -4.2,-1.5 -4.2,-4.5 v 0 c 0,-2.801 1.4,-4.203 4.2,-4.203 z m 6.37,22.136 h 33.94 c 2.8,0 4.2,1.5 4.2,4.5 v 0 c 0,2.801 -1.4,4.203 -4.2,4.203 v 0 h -33.94 c -2.85,0 -4.27,-1.402 -4.27,-4.203 v 0 c 0,-3 1.42,-4.5 4.27,-4.5 z m 4.94,22.434 h 33.72 c 2.85,0 4.27,1.402 4.27,4.203 v 0 c 0,2.852 -1.42,4.277 -4.27,4.277 v 0 h -33.72 c -2.94,0 -4.42,-1.425 -4.42,-4.277 v 0 c 0,-2.801 1.48,-4.203 4.42,-4.203 z m 5.55,22.133 h 33.72 c 2.79,0 4.19,1.504 4.19,4.504 v 0 c 0,2.8 -1.4,4.203 -4.19,4.203 v 0 h -33.72 c -2.8,0 -4.2,-1.403 -4.2,-4.203 v 0 c 0,-3 1.4,-4.504 4.2,-4.504 z m 6.07,22.437 h 34.24 c 3,0 4.5,1.399 4.5,4.199 v 0 c 0,3.004 -1.5,4.504 -4.5,4.504 v 0 h -34.24 c -2.8,0 -4.2,-1.5 -4.2,-4.504 v 0 c 0,-2.8 1.4,-4.199 4.2,-4.199 z m 4.72,22.133 h 34.24 c 2.85,0 4.27,1.5 4.27,4.504 v 0 c 0,2.852 -1.42,4.277 -4.27,4.277 v 0 h -34.24 c -2.95,0 -4.42,-1.425 -4.42,-4.277 v 0 c 0,-3.004 1.47,-4.504 4.42,-4.504 z M 2733.5,190.195 h 107.53 c 2.8,0 4.2,1.403 4.2,4.203 v 0 c 0,2.801 -1.4,4.204 -4.2,4.204 v 0 H 2733.5 c -2.79,0 -4.19,-1.403 -4.19,-4.204 v 0 c 0,-2.8 1.4,-4.203 4.19,-4.203 z m -7.04,22.137 h 33.2 c 2.79,0 4.19,1.5 4.19,4.5 v 0 c 0,2.801 -1.4,4.203 -4.19,4.203 v 0 h -33.2 c -3,0 -4.5,-1.402 -4.5,-4.203 v 0 c 0,-3 1.5,-4.5 4.5,-4.5 z m 34.77,-155.9179 h 42.64 c 2.79,0 4.19,1.4257 4.19,4.2773 v 0 c 0,2.8008 -1.4,4.1992 -4.19,4.1992 v 0 h -42.64 c -2.85,0 -4.27,-1.3984 -4.27,-4.1992 v 0 c 0,-2.8516 1.42,-4.2773 4.27,-4.2773 z m -6.07,22.207 h 53.2 c 2.8,0 4.2,1.4766 4.2,4.4297 v 0 c 0,2.8515 -1.4,4.2773 -4.2,4.2773 v 0 h -53.2 c -2.85,0 -4.27,-1.4258 -4.27,-4.2773 v 0 c 0,-2.9531 1.42,-4.4297 4.27,-4.4297 z m -4.5,22.3589 h 62.2 c 2.8,0 4.19,1.426 4.19,4.278 v 0 c 0,2.801 -1.39,4.203 -4.19,4.203 v 0 h -62.2 c -2.79,0 -4.19,-1.402 -4.19,-4.203 v 0 c 0,-2.852 1.4,-4.278 4.19,-4.278 z m -5.02,22.211 h 72.16 c 3,0 4.5,1.5 4.5,4.504 v 0 c 0,2.801 -1.5,4.2 -4.5,4.2 v 0 h -72.16 c -2.8,0 -4.19,-1.399 -4.19,-4.2 v 0 c 0,-3.004 1.39,-4.504 4.19,-4.504 z m -5.02,22.434 h 82.51 c 2.79,0 4.19,1.402 4.19,4.203 v 0 c 0,2.801 -1.4,4.203 -4.19,4.203 v 0 h -82.51 c -2.94,0 -4.42,-1.402 -4.42,-4.203 v 0 c 0,-2.801 1.48,-4.203 4.42,-4.203 z m -3.37,22.137 h 90.59 c 2.8,0 4.2,1.5 4.2,4.5 v 0 c 0,2.804 -1.4,4.203 -4.2,4.203 v 0 h -90.59 c -2.85,0 -4.27,-1.399 -4.27,-4.203 v 0 c 0,-3 1.42,-4.5 4.27,-4.5 z m -16.86,67.004 h 33.72 c 2.95,0 4.42,1.402 4.42,4.203 v 0 c 0,3 -1.47,4.5 -4.42,4.5 v 0 h -33.72 c -2.85,0 -4.27,-1.5 -4.27,-4.5 v 0 c 0,-2.801 1.42,-4.203 4.27,-4.203 z m -6.37,22.136 h 33.72 c 2.85,0 4.27,1.5 4.27,4.5 v 0 c 0,2.801 -1.42,4.203 -4.27,4.203 v 0 h -33.72 c -2.8,0 -4.2,-1.402 -4.2,-4.203 v 0 c 0,-3 1.4,-4.5 4.2,-4.5 z m -4.95,22.434 h 33.95 c 2.8,0 4.19,1.402 4.19,4.203 v 0 c 0,2.852 -1.39,4.277 -4.19,4.277 v 0 h -33.95 c -2.84,0 -4.27,-1.425 -4.27,-4.277 v 0 c 0,-2.801 1.43,-4.203 4.27,-4.203 z m -5.54,22.133 h 33.72 c 2.95,0 4.42,1.504 4.42,4.504 v 0 c 0,2.8 -1.47,4.203 -4.42,4.203 v 0 h -33.72 c -2.85,0 -4.27,-1.403 -4.27,-4.203 v 0 c 0,-3 1.42,-4.504 4.27,-4.504 z m -6.59,22.437 h 34.24 c 2.8,0 4.2,1.399 4.2,4.199 v 0 c 0,3.004 -1.4,4.504 -4.2,4.504 v 0 h -34.24 c -2.8,0 -4.2,-1.5 -4.2,-4.504 v 0 c 0,-2.8 1.4,-4.199 4.2,-4.199 z m 29.74,22.133 h -34.47 c -2.84,0 -4.26,1.5 -4.26,4.504 v 0 c 0,2.852 1.42,4.277 4.26,4.277 v 0 h 34.47 c 2.8,0 4.2,-1.425 4.2,-4.277 v 0 c 0,-3.004 -1.4,-4.504 -4.2,-4.504 v 0"
             style="fill:#b0b2b5;fill-opacity:1;fill-rule:nonzero;stroke:none"
             id="path32" /></g></g></g></g></svg>
